<?xml version="1.0" standalone="no"?>
<!DOCTYPE svg PUBLIC "-//W3C//DTD SVG 1.1//EN" "http://www.w3.org/Graphics/SVG/1.1/DTD/svg11.dtd" >
<svg xmlns="http://www.w3.org/2000/svg" xmlns:xlink="http://www.w3.org/1999/xlink" version="1.1">
<metadata></metadata>
<defs>
<font id="clarkemedium" horiz-adv-x="770" >
<font-face units-per-em="2048" ascent="1638" descent="-410" />
<missing-glyph horiz-adv-x="624" />
<glyph horiz-adv-x="0" />
<glyph horiz-adv-x="682" />
<glyph horiz-adv-x="0" />
<glyph horiz-adv-x="0" />
<glyph unicode="&#xd;" horiz-adv-x="645" />
<glyph unicode=" "  horiz-adv-x="624" />
<glyph unicode="&#x09;" horiz-adv-x="624" />
<glyph unicode="&#xa0;" horiz-adv-x="624" />
<glyph unicode="!" horiz-adv-x="456" d="M123 27v166q0 11 7.5 17.5t19.5 6.5h159q11 0 18 -7t7 -17v-166q0 -12 -7 -19.5t-18 -7.5h-159q-12 0 -19.5 7.5t-7.5 19.5zM123 332v1116q0 12 7.5 19.5t19.5 7.5h159q11 0 18 -7.5t7 -19.5v-1116q0 -11 -7.5 -19t-17.5 -8h-159q-12 0 -19.5 8t-7.5 19z" />
<glyph unicode="&#x22;" horiz-adv-x="544" d="M51 1276v199q0 10 8 18t19 8h151q10 0 17.5 -7.5t7.5 -18.5v-199q0 -43 -29 -74t-71 -31q-43 0 -73 31t-30 74zM291 1276v199q0 11 7.5 18.5t18.5 7.5h152q10 0 17.5 -7.5t7.5 -18.5v-199q0 -43 -29.5 -74t-71.5 -31t-72 31t-30 74z" />
<glyph unicode="#" horiz-adv-x="1296" d="M102 440v150q0 10 8 18t19 8h174l55 203h-141q-10 0 -17 8t-7 19v149q0 11 7 19t17 8h195l71 268h203l-74 -268h224l71 268h203l-74 -268h133q10 0 17.5 -8t7.5 -19v-149q0 -11 -7.5 -19t-17.5 -8h-188l-55 -203h141q11 0 19 -8t8 -18v-150q0 -10 -8 -18t-19 -8h-195 l-63 -230h-197l62 230h-225l-64 -230h-197l62 230h-121q-11 0 -19 8t-8 18zM502 616h225l55 203h-225z" />
<glyph unicode="$" horiz-adv-x="845" d="M92 207v227q0 12 8 19.5t19 7.5h160q26 0 26 -27v-196q0 -22 15.5 -38t37.5 -16h129q22 0 38 16t16 38v374q0 22 -16 38t-38 16h-178q-89 0 -153 63t-64 152v387q0 90 63.5 152.5t153.5 62.5h23v76q0 26 24 26h123q27 0 27 -26v-76h22q88 0 151.5 -62.5t63.5 -152.5v-135 q0 -12 -6.5 -19.5t-17.5 -7.5h-162q-11 0 -18 7.5t-7 19.5v96q0 23 -15.5 38t-37.5 15h-121q-22 0 -37.5 -15t-15.5 -38v-318q0 -22 15.5 -37.5t37.5 -15.5h179q90 0 153.5 -62.5t63.5 -152.5v-436q0 -90 -63.5 -153.5t-153.5 -63.5h-31v-70q0 -11 -7.5 -17.5t-19.5 -6.5 h-123q-10 0 -17 7t-7 17v70h-23q-90 0 -153.5 63.5t-63.5 153.5z" />
<glyph unicode="%" horiz-adv-x="1695" d="M113 897v371q0 90 63.5 152.5t151.5 62.5h174q88 0 151.5 -62.5t63.5 -152.5v-371q0 -89 -63.5 -152t-151.5 -63h-174q-88 0 -151.5 63t-63.5 152zM324 930q0 -23 16 -39.5t39 -16.5h74q22 0 37.5 16.5t15.5 39.5v299q0 23 -15.5 38t-37.5 15h-74q-23 0 -39 -15t-16 -38 v-299zM542.5 8q-2.5 6 2.5 19l389 1421q4 12 12 19t14 7l7 1h184q1 0 2.5 -1t4 -7t-2.5 -19l-395 -1421q-4 -12 -11.5 -19t-13.5 -8h-6h-180q-1 0 -2.5 1t-4 7zM979 207v371q0 89 63.5 152t151.5 63h174q88 0 151.5 -63t63.5 -152v-371q0 -90 -63.5 -153.5t-151.5 -63.5 h-174q-88 0 -151.5 63.5t-63.5 153.5zM1190 238q0 -22 16 -38t39 -16h74q22 0 37.5 16t15.5 38v301q0 22 -15.5 37.5t-37.5 15.5h-74q-23 0 -39 -15.5t-16 -37.5v-301z" />
<glyph unicode="&#x26;" horiz-adv-x="940" d="M82 215v195q0 40 45.5 127t130.5 229q-147 304 -147 367v135q0 90 63.5 152.5t151.5 62.5h133q90 0 152.5 -62.5t62.5 -152.5v-140q0 -60 -187 -370l86 -178l37 67q12 25 27 25h162q10 0 15.5 -8t0.5 -17l-141 -266l182 -354q3 -11 -1.5 -19t-16.5 -8h-160q-22 0 -35 27 q-33 57 -80 147l-92 -174h-172q-89 0 -153 63t-64 152zM295 248q0 -23 15.5 -39t37.5 -16h12l99 178l-92 178q-72 -127 -72 -162v-139zM322 1151q0 -33 63 -172q78 129 78 168v90q0 22 -15.5 37.5t-37.5 15.5h-33q-23 0 -39 -15.5t-16 -37.5v-86z" />
<glyph unicode="'" horiz-adv-x="305" d="M51 1276v199q0 10 8 18t19 8h151q10 0 17.5 -7.5t7.5 -18.5v-199q0 -43 -29 -74t-71 -31q-43 0 -73 31t-30 74z" />
<glyph unicode="(" horiz-adv-x="571" d="M123 4v1466q0 90 63.5 153t151.5 63h137q11 0 18 -7t7 -18v-150q0 -11 -7.5 -18.5t-17.5 -7.5h-86q-23 0 -39 -15t-16 -38v-1397q0 -22 16 -37.5t39 -15.5h86q11 0 18 -7.5t7 -19.5v-141q0 -11 -7.5 -19t-17.5 -8h-137q-88 0 -151.5 63.5t-63.5 153.5z" />
<glyph unicode=")" horiz-adv-x="573" d="M72 -45q0 12 7.5 19.5t18.5 7.5h86q23 0 38.5 15.5t15.5 37.5v1397q0 23 -15.5 38t-38.5 15h-86q-10 0 -18 7.5t-8 18.5v150q0 10 7.5 17.5t18.5 7.5h138q88 0 151.5 -63t63.5 -153v-1466q0 -90 -63.5 -153.5t-151.5 -63.5h-138q-10 0 -18 8t-8 19v141z" />
<glyph unicode="*" horiz-adv-x="563" d="M75 1277.5q-4 10.5 1 20.5l12 52q12 28 33 18l100 -49q26 -11 17 -31l-5 -16q-7 -20 -30 -17l-111 11q-13 1 -17 11.5zM139 1135l72 86q21 17 35 8l16 -8q14 -11 8 -35l-41 -105q-5 -24 -34 -8l-45 27q-28 16 -11 35zM229 1448q-1 13 7 20t20 7h53q12 0 20 -7t7 -20 l-19 -109q-6 -24 -26 -24h-17q-20 0 -26 24zM297 1186q-8 23 6 37l16 6q16 11 35 -8l72 -84q17 -20 -10 -35l-43 -27q-29 -16 -37 8zM326 1286q-6 17 18 31l100 45q23 13 33 -16l12 -52q3 -12 -1 -22t-17 -10l-109 -11q-27 0 -32 19z" />
<glyph unicode="+" horiz-adv-x="827" d="M102 643v150q0 11 7.5 18.5t19.5 7.5h184v185q0 10 7 17t18 7h149q11 0 19 -7t8 -17v-185h186q10 0 17.5 -7.5t7.5 -18.5v-150q0 -11 -7.5 -19t-17.5 -8h-186v-184q0 -12 -8 -19t-19 -7h-149q-11 0 -18 7t-7 19v184h-184q-12 0 -19.5 8t-7.5 19z" />
<glyph unicode="," horiz-adv-x="319" d="M51 78v117q0 12 8 19t19 7h164q11 0 18.5 -7t7.5 -19v-224q0 -52 -27.5 -80t-78.5 -28q-19 0 -19 16v111h-2q-38 0 -64 26t-26 62z" />
<glyph unicode="-" horiz-adv-x="827" d="M102 643v150q0 11 7.5 18.5t19.5 7.5h571q10 0 17.5 -7.5t7.5 -18.5v-150q0 -11 -7.5 -19t-17.5 -8h-571q-12 0 -19.5 8t-7.5 19z" />
<glyph unicode="." horiz-adv-x="319" d="M51 27v168q0 12 8 19t19 7h164q11 0 18.5 -7t7.5 -19v-168q0 -12 -7.5 -19.5t-18.5 -7.5h-164q-11 0 -19 7.5t-8 19.5z" />
<glyph unicode="/" horiz-adv-x="761" d="M73 8q-3 6 1 19l391 1421q4 12 11.5 19t13.5 7l6 1h184q2 0 3.5 -1t4.5 -7t-2 -19l-395 -1421q-4 -12 -12 -18.5t-15 -7.5l-6 -1h-178q-1 0 -2.5 1t-4.5 7z" />
<glyph unicode="0" horiz-adv-x="864" d="M102 207v1061q0 90 63.5 152.5t151.5 62.5h230q88 0 151.5 -62.5t63.5 -152.5v-1061q0 -90 -63.5 -153.5t-151.5 -63.5h-230q-88 0 -151.5 63.5t-63.5 153.5zM313 238q0 -22 16.5 -38t39.5 -16h129q22 0 37.5 16t15.5 38v991q0 23 -15.5 38t-37.5 15h-129q-24 0 -40 -15 t-16 -38v-991z" />
<glyph unicode="1" horiz-adv-x="555" d="M102 1266v80l138 129h166q26 0 26 -27v-1421q0 -27 -26 -27h-160q-11 0 -19 7.5t-8 19.5v1214h-90q-12 0 -19.5 7t-7.5 18z" />
<glyph unicode="2" horiz-adv-x="829" d="M82 27v174q18 32 49 86.5t109 198t137.5 260t108.5 229t49 149.5v105q0 23 -16 38t-38 15h-114q-22 0 -38 -15t-16 -38v-78q0 -27 -26 -27h-160q-11 0 -19 7.5t-8 19.5v117q0 90 63.5 152.5t153.5 62.5h213q90 0 152.5 -62.5t62.5 -152.5v-144q0 -58 -110.5 -289 t-220.5 -433l-111 -201h420q11 0 18 -7.5t7 -19.5v-147q0 -12 -7 -19.5t-18 -7.5h-614q-11 0 -19 7.5t-8 19.5z" />
<glyph unicode="3" horiz-adv-x="837" d="M82 1151v117q0 90 63.5 152.5t151.5 62.5h233q88 0 151.5 -62.5t63.5 -152.5v-383q0 -68 -36 -121q36 -48 36 -117v-440q0 -90 -63.5 -153.5t-151.5 -63.5h-229q-89 0 -152 63t-63 154v119q0 11 7.5 18.5t17.5 7.5h161q10 0 17.5 -7.5t7.5 -18.5v-88q0 -22 15.5 -38 t37.5 -16h129q23 0 38 16t15 38v370q0 22 -15 38t-38 16h-88q-20 3 -20 26v150q0 10 7.5 17t18.5 7h82q23 0 38 15.5t15 37.5v314q0 23 -15 38t-38 15h-131q-23 0 -39 -15t-16 -38v-78q0 -12 -7 -19.5t-18 -7.5h-159q-12 0 -19.5 7.5t-7.5 19.5z" />
<glyph unicode="4" horiz-adv-x="782" d="M41 248v176l412 1024q4 12 10.5 19t10.5 7l5 1h160q10 1 17.5 -7t7.5 -20v-1024h51q26 0 26 -27v-149q0 -11 -7 -18t-19 -7h-51v-196q0 -12 -7 -19.5t-18 -7.5h-162q-11 0 -17.5 7.5t-6.5 19.5v196h-385q-12 0 -19.5 7t-7.5 18zM258 424h201v551z" />
<glyph unicode="5" horiz-adv-x="843" d="M102 207v227q0 12 7.5 19.5t19.5 7.5h160q11 0 17.5 -7.5t6.5 -19.5v-196q0 -22 16.5 -38t39.5 -16h129q22 0 37.5 16t15.5 38v405q0 22 -15.5 37.5t-37.5 15.5h-365q-10 0 -17 8t-7 19v725q0 12 6.5 19.5t17.5 7.5h559q11 0 19 -7.5t8 -19.5v-150q0 -12 -8 -19t-19 -7 h-373v-381h228q88 0 151.5 -63.5t63.5 -153.5v-467q0 -90 -63.5 -153.5t-151.5 -63.5h-230q-88 0 -151.5 63.5t-63.5 153.5z" />
<glyph unicode="6" horiz-adv-x="843" d="M102 207v1061q0 90 63.5 152.5t151.5 62.5h209q90 0 152.5 -62.5t62.5 -152.5v-135q0 -12 -6.5 -19.5t-17.5 -7.5h-162q-11 0 -18 7.5t-7 19.5v96q0 23 -15.5 38t-37.5 15h-108q-24 0 -40 -15t-16 -38v-365h234q88 0 151.5 -63t63.5 -152v-442q0 -90 -63.5 -153.5 t-151.5 -63.5h-230q-88 0 -151.5 63.5t-63.5 153.5zM313 238q0 -22 16.5 -38t39.5 -16h129q22 0 37.5 16t15.5 38v372q0 22 -15.5 38t-37.5 16h-185v-426z" />
<glyph unicode="7" horiz-adv-x="745" d="M61 1298v150q0 12 7.5 19.5t19.5 7.5h571q11 0 18 -7.5t7 -19.5v-174l-264 -1247q-2 -12 -7.5 -19t-10.5 -8h-5h-166q-2 0 -5 0.5t-7 7.5t-2 19l268 1247h-397q-12 0 -19.5 6.5t-7.5 17.5z" />
<glyph unicode="8" horiz-adv-x="868" d="M102 207v438q0 71 72 119q-3 0 -10 3t-18 12t-20.5 21.5t-16.5 34.5t-7 48v385q0 90 63.5 152.5t151.5 62.5h234q88 0 151.5 -62.5t63.5 -152.5v-385q0 -27 -7 -49t-16.5 -34.5t-21 -21t-19 -11.5t-10.5 -3q4 -2 9.5 -5t18 -14t22 -23.5t17 -33t7.5 -43.5v-438 q0 -90 -63.5 -153.5t-151.5 -63.5h-234q-88 0 -151.5 63.5t-63.5 153.5zM313 238q0 -22 16.5 -38t39.5 -16h131q23 0 38 16t15 38v368q0 22 -15 37.5t-38 15.5h-131q-23 0 -39.5 -15.5t-16.5 -37.5v-368zM313 913q0 -22 16.5 -37.5t39.5 -15.5h137q20 1 33.5 16.5t13.5 36.5 v316q0 23 -15 38t-38 15h-131q-24 0 -40 -15t-16 -38v-316z" />
<glyph unicode="9" horiz-adv-x="843" d="M82 793v475q0 90 63.5 152.5t151.5 62.5h229q88 0 151.5 -62.5t63.5 -152.5v-1061q0 -90 -63.5 -153.5t-151.5 -63.5h-211q-88 0 -151.5 63.5t-63.5 153.5v135q0 12 7.5 19.5t19.5 7.5h160q11 0 17.5 -7.5t6.5 -19.5v-96q0 -23 16 -38t40 -15h110q22 0 37.5 15t15.5 38 v332h-233q-88 0 -151.5 62.5t-63.5 152.5zM293 831q0 -23 16 -38t39 -15h182v459q0 22 -15.5 37.5t-37.5 15.5h-129q-23 0 -39 -15.5t-16 -37.5v-406z" />
<glyph unicode=":" horiz-adv-x="380" d="M82 27v168q0 12 8 19t19 7h163q11 0 19 -7t8 -19v-168q0 -12 -8 -19.5t-19 -7.5h-163q-11 0 -19 7.5t-8 19.5zM82 840v170q0 10 8 18t19 8h163q11 0 19 -8t8 -18v-170q0 -10 -8 -17.5t-19 -7.5h-163q-11 0 -19 7.5t-8 17.5z" />
<glyph unicode=";" horiz-adv-x="380" d="M82 78v117q0 12 8 19t19 7h163q11 0 19 -7t8 -19v-224q0 -52 -27.5 -80t-78.5 -28q-7 0 -13 6t-6 14v107h-2q-38 0 -64 26t-26 62zM82 840v170q0 10 8 18t19 8h163q11 0 19 -8t8 -18v-170q0 -10 -8 -17.5t-19 -7.5h-163q-11 0 -19 7.5t-8 17.5z" />
<glyph unicode="&#x3c;" horiz-adv-x="593" d="M68 694q-12 24 0 51l249 424q6 12 14.5 18.5t13.5 7.5l5 1h172q2 0 4 -1t5 -7t-5 -19l-250 -448l250 -451q6 -12 5 -17.5t-5 -6.5h-4h-172q-19 -1 -33 24z" />
<glyph unicode="=" horiz-adv-x="847" d="M113 496v149q0 11 7 19t19 8h572q10 0 17 -8t7 -19v-149q0 -11 -7 -19t-17 -8h-572q-12 0 -19 8t-7 19zM113 791v149q0 11 7 19t19 8h572q10 0 17 -8t7 -19v-149q0 -11 -7 -19t-17 -8h-572q-12 0 -19 8t-7 19z" />
<glyph unicode="&#x3e;" horiz-adv-x="595" d="M63 252.5q-3 5.5 5 17.5l249 451l-249 448q-6 13 -5 19t5 7l4 1h172q19 0 35 -27l247 -424q15 -27 0 -51l-247 -424q-7 -11 -16 -17t-14 -7h-5h-172q-2 0 -4 0.5t-5 6z" />
<glyph unicode="?" horiz-adv-x="815" d="M82 1133v135q0 90 63.5 152.5t151.5 62.5h219q90 0 153.5 -62.5t63.5 -152.5v-430q0 -90 -63.5 -153.5t-153.5 -63.5q-22 0 -37.5 -15.5t-15.5 -38.5v-235q0 -11 -7.5 -19t-17.5 -8h-162q-10 0 -17 8t-7 19v266q0 91 63 154t152 63q22 0 37.5 15t15.5 38v361 q0 23 -15.5 38t-37.5 15h-119q-23 0 -39 -15t-16 -38v-96q0 -12 -7 -19.5t-18 -7.5h-159q-12 0 -19.5 7.5t-7.5 19.5zM254 27v166q0 10 7 17t18 7h161q11 0 18 -7t7 -17v-166q0 -12 -7 -19.5t-18 -7.5h-161q-11 0 -18 7.5t-7 19.5z" />
<glyph unicode="@" horiz-adv-x="1538" d="M76 20v1240q0 89 63.5 152t151.5 63h899q88 0 151.5 -63t63.5 -152v-924q0 -90 -63.5 -153.5t-151.5 -63.5h-100q-60 0 -111 31q-48 -31 -109 -31h-213q-88 0 -151.5 63.5t-63.5 153.5v481q0 90 63.5 153.5t153.5 63.5h93q121 0 196 -59v22q0 12 10 19.5t23 7.5h43 q11 0 18 -7.5t7 -19.5v-635q0 -22 15.5 -37.5t37.5 -15.5h37q23 0 37 15.5t14 37.5v857q0 22 -15 37.5t-38 15.5h-793q-23 0 -39 -15.5t-16 -37.5v-1164q0 -23 16 -39t39 -16h1022q11 0 19 -7.5t8 -17.5v-143q0 -12 -8 -19.5t-19 -7.5h-1075q-88 0 -151.5 63t-63.5 152z M635 334q0 -22 16 -37.5t39 -15.5h113q20 0 36.5 17t16.5 36v471q0 22 -16 37.5t-39 15.5h-113q-23 0 -38 -15.5t-15 -37.5v-471z" />
<glyph unicode="A" horiz-adv-x="882" d="M84 27l246 1421q1 12 7.5 19t12.5 7l6 1h170q3 0 7 -0.5t11.5 -7.5t8.5 -19l246 -1421q2 -12 -2 -18.5t-9 -7.5l-4 -1h-176q-2 0 -5 0.5t-8.5 7.5t-6.5 19l-35 196h-223l-35 -196q-1 -12 -6 -18.5t-10 -7.5l-5 -1h-176q-2 0 -5 0.5t-7 7.5t-2 19zM362 424h158l-80 582z " />
<glyph unicode="B" horiz-adv-x="888" d="M123 27v1421q0 12 7.5 19.5t19.5 7.5h385q88 0 151.5 -63t63.5 -152v-398q0 -41 -21 -92q57 -64 57 -145v-410q0 -89 -63.5 -152t-151.5 -63h-421q-12 0 -19.5 7.5t-7.5 19.5zM334 193h186q23 0 38 16t15 39v350q0 21 -13 35.5t-34 17.5h-192v-458zM334 838h155 q22 1 35 16t13 37v330q0 22 -15.5 37.5t-38.5 15.5h-149v-436z" />
<glyph unicode="C" horiz-adv-x="868" d="M113 207v1061q0 90 63.5 152.5t151.5 62.5h223q90 0 152.5 -62.5t62.5 -152.5v-135q0 -12 -7 -19.5t-18 -7.5h-159q-12 0 -19.5 7.5t-7.5 19.5v96q0 23 -15.5 38t-37.5 15h-123q-23 0 -39 -15t-16 -38v-991q0 -22 16 -38t39 -16h131q23 0 38 16t15 38v196q0 12 8 19.5 t19 7.5h160q26 0 26 -27v-227q0 -90 -63.5 -153.5t-151.5 -63.5h-233q-88 0 -151.5 63.5t-63.5 153.5z" />
<glyph unicode="D" horiz-adv-x="899" d="M123 27v1421q0 12 7.5 19.5t19.5 7.5h421q88 0 151.5 -63t63.5 -152v-1045q0 -89 -63.5 -152t-151.5 -63h-421q-12 0 -19.5 7.5t-7.5 19.5zM334 201h186q23 0 38 15.5t15 37.5v967q0 22 -15 37.5t-38 15.5h-186v-1073z" />
<glyph unicode="E" horiz-adv-x="837" d="M123 27v1421q0 12 7.5 19.5t19.5 7.5h559q11 0 18.5 -7.5t7.5 -19.5v-150q0 -12 -7.5 -19t-18.5 -7h-375v-395h301q11 0 19 -7.5t8 -17.5v-150q0 -10 -8 -18t-19 -8h-301v-475h387q11 0 17.5 -7.5t6.5 -19.5v-147q0 -12 -6.5 -19.5t-17.5 -7.5h-571q-12 0 -19.5 7.5 t-7.5 19.5z" />
<glyph unicode="F" horiz-adv-x="806" d="M123 27v1421q0 12 7.5 19.5t19.5 7.5h559q11 0 18.5 -7.5t7.5 -19.5v-150q0 -12 -7.5 -19t-18.5 -7h-375v-395h301q11 0 19 -7.5t8 -17.5v-150q0 -10 -8 -18t-19 -8h-301v-649q0 -12 -7 -19.5t-18 -7.5h-159q-12 0 -19.5 7.5t-7.5 19.5z" />
<glyph unicode="G" horiz-adv-x="878" d="M113 207v1061q0 90 63.5 152.5t151.5 62.5h223q90 0 152.5 -62.5t62.5 -152.5v-135q0 -12 -7 -19.5t-18 -7.5h-159q-12 0 -19.5 7.5t-7.5 19.5v96q0 23 -15.5 38t-37.5 15h-123q-23 0 -39 -15t-16 -38v-991q0 -22 16 -38t39 -16h131q23 0 38 16t15 38v278h-96 q-11 0 -19 7.5t-8 19.5v147q0 12 8 19.5t19 7.5h283q26 0 26 -27v-483q0 -90 -63.5 -153.5t-151.5 -63.5h-233q-88 0 -151.5 63.5t-63.5 153.5z" />
<glyph unicode="H" horiz-adv-x="923" d="M123 27v1421q0 12 7.5 19.5t19.5 7.5h159q11 0 18 -7.5t7 -19.5v-571h256v571q0 12 6.5 19.5t17.5 7.5h162q11 0 18 -7.5t7 -19.5v-1421q0 -12 -7 -19.5t-18 -7.5h-162q-11 0 -17.5 7.5t-6.5 19.5v649h-256v-649q0 -12 -7 -19.5t-18 -7.5h-159q-12 0 -19.5 7.5t-7.5 19.5 z" />
<glyph unicode="I" horiz-adv-x="456" d="M123 27v1421q0 12 7.5 19.5t19.5 7.5h159q11 0 18 -7.5t7 -19.5v-1421q0 -12 -7 -19.5t-18 -7.5h-159q-12 0 -19.5 7.5t-7.5 19.5z" />
<glyph unicode="J" horiz-adv-x="843" d="M61 207v227q0 12 7.5 19.5t19.5 7.5h156q11 0 18.5 -7.5t7.5 -19.5v-196q0 -22 15.5 -38t38.5 -16h133q22 0 37.5 16t15.5 38v1210q0 12 7 19.5t18 7.5h161q11 0 18 -7.5t7 -19.5v-1241q0 -90 -63.5 -153.5t-151.5 -63.5h-230q-88 0 -151.5 63.5t-63.5 153.5z" />
<glyph unicode="K" horiz-adv-x="860" d="M123 27v1421q0 12 7.5 19.5t19.5 7.5h159q11 0 18 -7.5t7 -19.5v-608l248 608q4 12 11 19t12 7l5 1h174q2 0 5 -1t7.5 -7t-1.5 -19l-250 -610l250 -811q3 -12 -0.5 -18.5t-8.5 -7.5l-4 -1h-174q-16 0 -26 27l-172 510l-76 -193v-317q0 -12 -7 -19.5t-18 -7.5h-159 q-12 0 -19.5 7.5t-7.5 19.5z" />
<glyph unicode="L" horiz-adv-x="806" d="M123 27v1421q0 12 7.5 19.5t19.5 7.5h159q11 0 18 -7.5t7 -19.5v-1247h387q11 0 17.5 -7.5t6.5 -19.5v-147q0 -12 -6.5 -19.5t-17.5 -7.5h-571q-12 0 -19.5 7.5t-7.5 19.5z" />
<glyph unicode="M" horiz-adv-x="1177" d="M123 27v1421q0 12 7.5 19.5t19.5 7.5h151q23 0 33 -27l256 -705l256 705q4 12 11.5 19t13.5 7l6 1h153q11 0 18 -7.5t7 -19.5v-1421q0 -12 -7 -19.5t-18 -7.5h-162q-11 0 -17.5 7.5t-6.5 19.5v813l-254 -711l-256 711v-813q0 -12 -7 -19.5t-18 -7.5h-159q-12 0 -19.5 7.5 t-7.5 19.5z" />
<glyph unicode="N" horiz-adv-x="923" d="M123 27v1421q0 12 7.5 19.5t19.5 7.5h157q2 0 6 -0.5t11 -7.5t10 -19l256 -793v793q0 12 6.5 19.5t17.5 7.5h162q11 0 18 -7.5t7 -19.5v-1421q0 -12 -7 -19.5t-18 -7.5h-149q-21 0 -29 27l-264 714v-714q0 -12 -7 -19.5t-18 -7.5h-159q-12 0 -19.5 7.5t-7.5 19.5z" />
<glyph unicode="O" horiz-adv-x="892" d="M113 207v1061q0 90 63.5 152.5t151.5 62.5h235q90 0 153.5 -62.5t63.5 -152.5v-1061q0 -90 -63.5 -153.5t-153.5 -63.5h-235q-88 0 -151.5 63.5t-63.5 153.5zM324 238q0 -22 16 -38t39 -16h135q23 0 38 16t15 38v991q0 23 -15 38t-38 15h-135q-23 0 -39 -15t-16 -38v-991 z" />
<glyph unicode="P" horiz-adv-x="878" d="M123 27v1421q0 12 7.5 19.5t19.5 7.5h421q88 0 151.5 -63t63.5 -152v-453q0 -89 -63.5 -152t-151.5 -63h-237v-565q0 -12 -7 -19.5t-18 -7.5h-159q-12 0 -19.5 7.5t-7.5 19.5zM334 784h186q23 0 38 16t15 38v383q0 22 -15 37.5t-38 15.5h-186v-490z" />
<glyph unicode="Q" horiz-adv-x="892" d="M113 207v1061q0 90 63.5 152.5t151.5 62.5h235q90 0 153.5 -62.5t63.5 -152.5v-1061q0 -90 -63.5 -153.5t-153.5 -63.5h-10v-129q0 -12 -7.5 -19.5t-19.5 -7.5h-161q-11 0 -18 7.5t-7 19.5v129h-12q-88 0 -151.5 63.5t-63.5 153.5zM324 238q0 -22 16 -38t39 -16h135 q23 0 38 16t15 38v991q0 23 -15 38t-38 15h-135q-23 0 -39 -15t-16 -38v-991z" />
<glyph unicode="R" horiz-adv-x="892" d="M123 27v1421q0 12 7.5 19.5t19.5 7.5h421q88 0 151.5 -63t63.5 -152v-453q0 -67 -37.5 -121.5t-97.5 -79.5l148 -579q3 -13 0 -19t-8 -7l-5 -1h-176q-2 0 -5 0.5t-9.5 7.5t-9.5 19l-144 565h-108v-565q0 -12 -7 -19.5t-18 -7.5h-159q-12 0 -19.5 7.5t-7.5 19.5zM334 784 h186q23 0 38 16t15 38v383q0 22 -15 37.5t-38 15.5h-186v-490z" />
<glyph unicode="S" horiz-adv-x="847" d="M92 207v227q0 12 8 19.5t19 7.5h160q26 0 26 -27v-196q0 -22 15.5 -38t37.5 -16h134q22 0 37.5 16t15.5 38v374q0 22 -15.5 38t-37.5 16h-183q-89 0 -153 63t-64 152v387q0 90 63.5 152.5t153.5 62.5h223q89 0 152.5 -62.5t63.5 -152.5v-135q0 -12 -7.5 -19.5t-19.5 -7.5 h-160q-11 0 -18.5 7.5t-7.5 19.5v96q0 23 -15.5 38t-38.5 15h-123q-22 0 -37.5 -15t-15.5 -38v-318q0 -22 15.5 -37.5t37.5 -15.5h183q90 0 152.5 -62.5t62.5 -152.5v-436q0 -91 -63 -154t-152 -63h-232q-90 0 -153.5 63.5t-63.5 153.5z" />
<glyph unicode="T" horiz-adv-x="823" d="M72 1298v150q0 12 7.5 19.5t18.5 7.5h627q11 0 19 -7.5t8 -19.5v-150q0 -10 -8 -17t-19 -7h-209v-1247q0 -12 -6.5 -19.5t-17.5 -7.5h-162q-11 0 -18 7.5t-7 19.5v1247h-207q-11 0 -18.5 7t-7.5 17z" />
<glyph unicode="U" horiz-adv-x="909" d="M123 207v1241q0 12 7.5 19.5t19.5 7.5h159q11 0 18 -7.5t7 -19.5v-1210q0 -22 16 -38t39 -16h131q23 0 38 16t15 38v1210q0 12 8 19.5t19 7.5h160q26 0 26 -27v-1241q0 -90 -63.5 -153.5t-151.5 -63.5h-233q-88 0 -151.5 63.5t-63.5 153.5z" />
<glyph unicode="V" horiz-adv-x="884" d="M84 1448q-1 12 3 19t9 7l4 1h174q2 0 5.5 -0.5t9.5 -7.5t8 -19l145 -961l146 961q2 12 7.5 19t10.5 7l4 1h174q2 0 5 -0.5t8 -7.5t4 -19l-246 -1421q-2 -12 -9 -19t-14 -8h-6h-168q-24 0 -28 27z" />
<glyph unicode="W" horiz-adv-x="1394" d="M84 1448q-1 12 3 19t9 7l4 1h174q2 0 5.5 -0.5t9.5 -7.5t8 -19l145 -961l146 961q2 12 7.5 19t10.5 7l4 1h176q17 -6 21 -27l145 -961l146 961q2 12 7.5 19t10.5 7l4 1h176q2 0 5 -0.5t7.5 -7.5t2.5 -19l-246 -1421q-2 -12 -8.5 -19t-12.5 -8h-6h-170q-24 0 -28 27 l-144 829l-141 -829q-2 -12 -9 -19t-14 -8h-6h-168q-24 0 -28 27z" />
<glyph unicode="X" horiz-adv-x="815" d="M63.5 8q-2.5 6 2.5 19l225 743l-207 678q-3 13 -2.5 19t3.5 7l3 1h184q25 0 33 -27l103 -404l104 404q3 12 10.5 19t13.5 7l7 1h184q1 0 2.5 -1t4.5 -7t-1 -19l-211 -678l230 -743q2 -13 0.5 -19t-4.5 -7l-3 -1h-178q-24 0 -32 27l-127 473l-127 -473q-4 -12 -11.5 -19 t-13.5 -8h-6h-180q-1 0 -2.5 1t-4 7z" />
<glyph unicode="Y" horiz-adv-x="833" d="M65 1467q2 6 7 7l4 1h176q2 0 5 -0.5t9 -7.5t8 -19l144 -594l141 594q3 12 9 19t11 7l5 1h174q2 0 5 -0.5t6.5 -7.5t0.5 -19l-248 -987v-434q0 -27 -26 -27h-158q-11 0 -19 7.5t-8 19.5v434l-245 987q-3 13 -1 19z" />
<glyph unicode="Z" horiz-adv-x="806" d="M92 27v174l414 1073h-387q-12 0 -19.5 6.5t-7.5 17.5v150q0 12 7.5 19.5t19.5 7.5h571q11 0 18 -7.5t7 -19.5v-174l-412 -1073h387q11 0 18 -7.5t7 -19.5v-147q0 -12 -7 -19.5t-18 -7.5h-571q-12 0 -19.5 7.5t-7.5 19.5z" />
<glyph unicode="[" horiz-adv-x="571" d="M123 -186v1847q0 11 7.5 18t19.5 7h325q11 0 18 -7t7 -18v-150q0 -11 -7.5 -18.5t-17.5 -7.5h-141v-1503h141q11 0 18 -7.5t7 -19.5v-141q0 -11 -7.5 -19t-17.5 -8h-325q-12 0 -19.5 8t-7.5 19z" />
<glyph unicode="\" horiz-adv-x="761" d="M73 1467q1 6 4 7l3 1h184q25 0 31 -27l391 -1421q3 -13 2 -19t-4 -7l-4 -1h-178q-25 0 -31 27l-397 1421q-2 13 -1 19z" />
<glyph unicode="]" horiz-adv-x="573" d="M72 -45q0 12 7.5 19.5t18.5 7.5h140v1503h-140q-10 0 -18 7.5t-8 18.5v150q0 10 7.5 17.5t18.5 7.5h326q12 0 19.5 -7t7.5 -18v-1847q0 -11 -7.5 -19t-19.5 -8h-326q-10 0 -18 8t-8 19v141z" />
<glyph unicode="^" horiz-adv-x="630" d="M93.5 1474q-3.5 6 2.5 19l125 248q5 12 13 18.5t13 6.5l5 1h127q17 1 29 -26l127 -248q4 -13 2 -19t-7 -7l-4 -1h-92l-121 185l-118 -185h-91q-2 0 -4.5 1t-6 7z" />
<glyph unicode="_" horiz-adv-x="970" d="M82 27v147q0 12 7.5 19.5t19.5 7.5h755q11 0 18 -7.5t7 -19.5v-147q0 -12 -7 -19.5t-18 -7.5h-755q-12 0 -19.5 7.5t-7.5 19.5z" />
<glyph unicode="`" horiz-adv-x="425" d="M92 1349.5q0 6.5 4 7.5l4 1h129q19 0 29 -27l70 -155q5 -13 3.5 -19t-5.5 -7l-4 -1h-93l-129 182q-8 12 -8 18.5z" />
<glyph unicode="a" d="M72 213v203q0 90 63.5 152.5t151.5 62.5h192v160q0 23 -16 38t-39 15h-86q-23 0 -38 -15t-15 -38v-29q0 -12 -7.5 -19.5t-19.5 -7.5h-139q-11 0 -18 7.5t-7 19.5v55q0 90 63.5 152.5t153.5 62.5h152q88 0 151.5 -62.5t63.5 -152.5v-790q0 -12 -7 -19.5t-18 -7.5h-100 q-29 0 -29 27v30q-2 -2 -13 -10t-13.5 -10t-12.5 -8.5t-13.5 -8t-13.5 -6.5t-16 -6.5t-16.5 -4.5t-20 -4t-21.5 -2t-26 -1h-71q-88 0 -151.5 63.5t-63.5 153.5zM270 231q0 -22 16.5 -37.5t39.5 -15.5h100q23 0 38 15.5t15 37.5v232h-153q-24 0 -40 -15t-16 -38v-179z" />
<glyph unicode="b" horiz-adv-x="800" d="M113 27v1421q0 27 26 27h152q11 0 17.5 -7.5t6.5 -19.5v-424h187q90 0 153.5 -62.5t63.5 -152.5v-596q0 -90 -63.5 -153.5t-153.5 -63.5h-70q-14 0 -26 1t-21.5 2t-20 4t-16.5 4.5t-16 6.5t-13.5 6.5t-13.5 8t-12.5 8.5t-13.5 10t-13 10v-30q0 -27 -28 -27h-101 q-11 0 -17.5 7.5t-6.5 19.5zM315 236q0 -22 16.5 -38t39.5 -16h92q23 0 38 16t15 38v542q0 23 -15 38t-38 15h-148v-595z" />
<glyph unicode="c" horiz-adv-x="749" d="M82 207v610q0 90 63.5 152.5t151.5 62.5h174q90 0 153.5 -62.5t63.5 -152.5v-110q0 -12 -6.5 -19.5t-17.5 -7.5h-148q-12 0 -19.5 7.5t-7.5 19.5v92q0 23 -15 38t-38 15h-100q-23 0 -39 -15t-16 -38v-574q0 -22 16 -37.5t39 -15.5h100q23 0 38 15.5t15 37.5v86 q0 12 7.5 19.5t19.5 7.5h148q11 0 17.5 -7.5t6.5 -19.5v-104q0 -90 -63.5 -153.5t-153.5 -63.5h-174q-88 0 -151.5 63.5t-63.5 153.5z" />
<glyph unicode="d" horiz-adv-x="800" d="M82 213v596q0 90 63.5 152.5t153.5 62.5h190v424q0 12 7 19.5t18 7.5h148q26 0 26 -27v-1421q0 -12 -6.5 -19.5t-17.5 -7.5h-101q-28 0 -28 27v30q-2 -2 -13 -10t-13.5 -10t-12.5 -8.5t-13.5 -8t-13.5 -6.5t-16 -6.5t-16.5 -4.5t-20 -4t-21.5 -2t-26 -1h-70 q-90 0 -153.5 63.5t-63.5 153.5zM274 231q0 -22 15.5 -37.5t38.5 -15.5h106q23 0 39 15.5t16 37.5v605h-161q-23 0 -38.5 -15.5t-15.5 -38.5v-551z" />
<glyph unicode="e" d="M82 205v610q0 90 63.5 153.5t153.5 63.5h174q88 0 151.5 -63.5t63.5 -153.5v-364q0 -10 -7.5 -17.5t-18.5 -7.5h-381v-201q0 -23 16 -38t39 -15h100q23 0 38 15t15 38v45q0 12 7.5 19.5t19.5 7.5h148q11 0 17.5 -7.5t6.5 -19.5v-65q0 -90 -63.5 -152.5t-153.5 -62.5h-174 q-88 0 -151.5 62.5t-63.5 152.5zM281 594h208v213q0 22 -16 37.5t-39 15.5h-100q-23 0 -38 -15.5t-15 -37.5v-213z" />
<glyph unicode="f" horiz-adv-x="493" d="M61 860v137q0 12 8 19.5t19 7.5h45v236q0 90 63.5 152.5t153.5 62.5h76q11 0 19 -7.5t8 -19.5v-135q0 -10 -8 -17.5t-19 -7.5h-49q-20 0 -32.5 -15.5t-12.5 -37.5v-211h80q11 0 18.5 -7.5t7.5 -19.5v-137q0 -10 -7.5 -17t-18.5 -7h-80v-809q0 -12 -7 -19.5t-18 -7.5h-149 q-11 0 -18 7.5t-7 19.5v809h-45q-11 0 -19 7t-8 17z" />
<glyph unicode="g" horiz-adv-x="790" d="M82 217v594q0 90 63.5 153.5t153.5 63.5h70q14 0 26 -1t21.5 -2t20 -4t16.5 -4.5t16 -6.5t13.5 -6.5t13.5 -8t12.5 -8.5t13.5 -10t13 -10v30q0 27 28 27h101q11 0 17.5 -7.5t6.5 -19.5v-1120q0 -90 -63.5 -152.5t-153.5 -62.5h-258q-11 0 -19 7.5t-8 19.5v137q0 10 8 17 t19 7h231q20 0 32.5 16t12.5 38v96h-190q-90 0 -153.5 63.5t-63.5 153.5zM281 236q0 -22 15 -38t38 -16h155v617q0 22 -16 37.5t-39 15.5h-100q-23 0 -38 -15.5t-15 -37.5v-563z" />
<glyph unicode="h" horiz-adv-x="800" d="M102 27v1421q0 12 7.5 19.5t19.5 7.5h147q11 0 18 -7.5t7 -19.5v-424h191q90 0 153.5 -62.5t63.5 -152.5v-782q0 -12 -7 -19.5t-18 -7.5h-147q-12 0 -19.5 7.5t-7.5 19.5v755q0 23 -15 38.5t-38 15.5h-156v-809q0 -12 -7 -19.5t-18 -7.5h-147q-12 0 -19.5 7.5t-7.5 19.5z " />
<glyph unicode="i" horiz-adv-x="425" d="M92 1257q0 49 33.5 84t87.5 35t87.5 -35t33.5 -84t-33.5 -84.5t-87.5 -35.5t-87.5 35.5t-33.5 84.5zM113 27v970q0 27 26 27h148q11 0 17.5 -7.5t6.5 -19.5v-970q0 -12 -6.5 -19.5t-17.5 -7.5h-148q-26 0 -26 27z" />
<glyph unicode="j" horiz-adv-x="419" d="M-20 -172q0 10 7.5 17.5t18.5 7.5h68q20 3 32.5 17t12.5 36v1091q0 27 26 27h148q11 0 17.5 -7.5t6.5 -19.5v-1120q0 -90 -63.5 -152.5t-153.5 -62.5h-94q-11 0 -18.5 7.5t-7.5 19.5v139zM96 1257q0 49 33.5 84t87.5 35t87.5 -35t33.5 -84t-33.5 -84.5t-87.5 -35.5 t-87.5 35.5t-33.5 84.5z" />
<glyph unicode="k" horiz-adv-x="813" d="M113 27v1421q0 27 26 27h148q11 0 17.5 -7.5t6.5 -19.5v-846l242 395q17 27 39 27h145q11 0 15 -8t-2 -19l-215 -352l256 -618q4 -12 -1.5 -19.5t-17.5 -7.5h-143q-23 0 -33 27l-176 432l-109 -178v-254q0 -12 -6.5 -19.5t-17.5 -7.5h-148q-26 0 -26 27z" />
<glyph unicode="l" horiz-adv-x="423" d="M113 27v1421q0 27 26 27h148q11 0 17.5 -7.5t6.5 -19.5v-1421q0 -12 -6.5 -19.5t-17.5 -7.5h-148q-26 0 -26 27z" />
<glyph unicode="m" horiz-adv-x="1179" d="M102 27v970q0 12 7 19.5t18 7.5h100q29 0 29 -27v-30q2 2 13 10t13.5 10t12.5 8.5t13.5 8t13.5 6.5t16 6.5t16.5 4.5t20 4t21.5 2t26 1h49q57 0 94 -25.5t45 -44.5q37 30 52.5 40.5t52.5 20t94 9.5h63q88 0 151.5 -64.5t63.5 -154.5v-782q0 -27 -26 -27h-148 q-11 0 -17.5 7.5t-6.5 19.5v755q0 23 -16 38.5t-39 15.5h-91q-23 0 -38 -15.5t-15 -38.5v-755q0 -27 -26 -27h-140q-11 0 -17.5 7.5t-6.5 19.5v755q0 23 -15.5 38.5t-38.5 15.5h-90q-23 0 -39 -15.5t-16 -38.5v-755q0 -12 -7 -19.5t-18 -7.5h-147q-12 0 -19.5 7.5t-7.5 19.5 z" />
<glyph unicode="n" horiz-adv-x="800" d="M102 27v970q0 12 7 19.5t18 7.5h100q29 0 29 -27v-30q2 2 13 10t13.5 10t12.5 8.5t13.5 8t13.5 6.5t16 6.5t16.5 4.5t20 4t21.5 2t26 1h72q88 0 151.5 -62.5t63.5 -152.5v-786q0 -12 -7.5 -19.5t-19.5 -7.5h-147q-11 0 -18 7.5t-7 19.5v759q0 23 -16 38.5t-39 15.5h-101 q-23 0 -38 -15.5t-15 -38.5v-759q0 -12 -7.5 -19.5t-19.5 -7.5h-147q-11 0 -18 7.5t-7 19.5z" />
<glyph unicode="o" d="M82 207v612q0 90 63.5 152.5t151.5 62.5h174q90 0 153.5 -62.5t63.5 -152.5v-612q0 -90 -63.5 -153.5t-153.5 -63.5h-174q-88 0 -151.5 63.5t-63.5 153.5zM281 225q0 -22 16 -37.5t39 -15.5h100q23 0 38 15.5t15 37.5v568q0 23 -15 38t-38 15h-100q-23 0 -39 -15t-16 -38 v-568z" />
<glyph unicode="p" horiz-adv-x="790" d="M102 -311v1308q0 12 7 19.5t18 7.5h100q29 0 29 -27v-30q2 2 13 10t13.5 10t12.5 8.5t13.5 8t13.5 6.5t16 6.5t16.5 4.5t20 4t21.5 2t26 1h70q90 0 153.5 -63.5t63.5 -153.5v-594q0 -90 -63.5 -153.5t-153.5 -63.5h-191v-311q0 -12 -7 -19.5t-18 -7.5h-147 q-12 0 -19.5 7.5t-7.5 19.5zM301 182h156q23 0 38 16t15 38v557q0 22 -15 37.5t-38 15.5h-101q-23 0 -39 -15.5t-16 -37.5v-611z" />
<glyph unicode="q" horiz-adv-x="790" d="M82 217v594q0 90 63.5 153.5t153.5 63.5h70q14 0 26 -1t21.5 -2t20 -4t16.5 -4.5t16 -6.5t13.5 -6.5t13.5 -8t12.5 -8.5t13.5 -10t13 -10v30q0 27 28 27h101q11 0 17.5 -7.5t6.5 -19.5v-1308q0 -27 -26 -27h-148q-11 0 -18 7.5t-7 19.5v311h-190q-90 0 -153.5 63.5 t-63.5 153.5zM281 236q0 -22 15 -38t38 -16h155v611q0 22 -16 37.5t-39 15.5h-100q-23 0 -38 -15.5t-15 -37.5v-557z" />
<glyph unicode="r" horiz-adv-x="491" d="M102 27v970q0 12 7 19.5t18 7.5h100q29 0 29 -27v-30q2 2 13 10t13.5 10t12.5 8.5t13.5 8t13.5 6.5t16 6.5t16.5 4.5t20 4t21.5 2t26 1h12q11 0 19 -7.5t8 -19.5v-141q0 -10 -8 -17t-19 -7h-88q-20 0 -32.5 -16t-12.5 -38v-755q0 -12 -7.5 -19.5t-19.5 -7.5h-147 q-11 0 -18 7.5t-7 19.5z" />
<glyph unicode="s" horiz-adv-x="739" d="M72 207v94q0 12 6.5 19.5t17.5 7.5h148q26 0 26 -27v-76q0 -22 15.5 -37.5t38.5 -15.5h100q23 0 39 15.5t16 37.5v156q0 23 -16 38t-39 15h-137q-88 0 -151.5 62.5t-63.5 152.5v168q0 90 63.5 152.5t151.5 62.5h155q90 0 153.5 -62.5t63.5 -152.5v-90q0 -12 -6.5 -19.5 t-17.5 -7.5h-148q-26 0 -26 27v64q0 23 -15 38t-38 15h-82q-24 0 -40 -15t-16 -38v-132q0 -23 16 -38t40 -15h137q88 0 151.5 -62.5t63.5 -152.5v-184q0 -90 -63.5 -153.5t-151.5 -63.5h-174q-90 0 -153.5 63.5t-63.5 153.5z" />
<glyph unicode="t" horiz-adv-x="518" d="M51 860v137q0 12 8 19.5t19 7.5h82v199q0 26 26 26h148q24 0 24 -26v-199h82q11 0 19 -7.5t8 -19.5v-137q0 -10 -8 -17t-19 -7h-82v-809q0 -12 -6.5 -19.5t-17.5 -7.5h-150q-11 0 -17.5 7.5t-6.5 19.5v809h-82q-11 0 -19 7t-8 17z" />
<glyph unicode="u" horiz-adv-x="800" d="M92 211v786q0 12 7.5 19.5t19.5 7.5h147q11 0 18 -7.5t7 -19.5v-766q0 -23 16 -38t39 -15h100q23 0 38.5 15t15.5 38v766q0 27 26 27h148q11 0 17.5 -7.5t6.5 -19.5v-970q0 -12 -6.5 -19.5t-17.5 -7.5h-101q-28 0 -28 27v30q-2 -2 -13 -10t-13.5 -10t-12.5 -8.5t-13.5 -8 t-13.5 -6.5t-16 -6.5t-16.5 -4.5t-20 -4t-21.5 -2t-26 -1h-72q-88 0 -151.5 62.5t-63.5 152.5z" />
<glyph unicode="v" horiz-adv-x="688" d="M43 997q-5 27 18 27h156q22 0 25 -27l102 -782l102 782q3 27 25 27h156q21 0 18 -27l-160 -970q-3 -27 -26 -27h-230q-23 0 -26 27z" />
<glyph unicode="w" horiz-adv-x="1075" d="M63 997q-3 27 19 27h156q21 0 24 -27l72 -721l137 721q3 27 25 27h84q21 0 24 -27l137 -721l72 721q3 27 25 27h155q22 0 19 -27l-113 -970q-3 -27 -27 -27h-219q-19 0 -26 27l-90 399l-88 -399q-7 -27 -27 -27h-221q-24 0 -27 27z" />
<glyph unicode="x" horiz-adv-x="706" d="M55 27l185 489l-185 481q-5 11 1 19t18 8h147q10 0 20 -8t13 -19l98 -284l101 284q3 11 12.5 19t19.5 8h148q12 0 17.5 -8t0.5 -19l-184 -481l184 -489q4 -10 -0.5 -18.5t-15.5 -8.5h-148q-12 0 -21.5 8t-12.5 19l-101 305l-98 -305q-3 -11 -13 -19t-22 -8h-147 q-11 0 -16 8.5t-1 18.5z" />
<glyph unicode="y" horiz-adv-x="731" d="M53 997q-3 27 19 27h151q22 0 25 -27l119 -761l112 761q3 27 25 27h155q22 0 19 -27l-219 -1308q-1 -11 -11.5 -19t-21.5 -8h-143q-22 0 -19 27l49 311h-73q-24 0 -27 27z" />
<glyph unicode="z" horiz-adv-x="688" d="M61 25v163l369 648h-342q-11 0 -19 7t-8 17v137q0 12 8 19.5t19 7.5h512q11 0 19 -7.5t8 -19.5v-161l-369 -648h342q11 0 19 -7t8 -19v-137q0 -10 -8 -17.5t-19 -7.5h-512q-11 0 -19 7.5t-8 17.5z" />
<glyph unicode="{" horiz-adv-x="673" d="M113 721l166 287v462q0 90 63.5 153t153.5 63h79q12 0 19.5 -7t7.5 -18v-150q0 -11 -7.5 -18.5t-19.5 -7.5h-30q-22 0 -37.5 -15t-15.5 -38v-424l-154 -287l154 -287v-399q0 -22 15.5 -37.5t37.5 -15.5h30q12 0 19.5 -7.5t7.5 -19.5v-141q0 -11 -7.5 -19t-19.5 -8h-79 q-90 0 -153.5 63.5t-63.5 153.5v430z" />
<glyph unicode="|" horiz-adv-x="456" d="M123 -186v1847q0 11 7.5 18t19.5 7h159q11 0 18 -7t7 -18v-1847q0 -11 -7.5 -19t-17.5 -8h-159q-12 0 -19.5 8t-7.5 19z" />
<glyph unicode="}" horiz-adv-x="673" d="M72 -45q0 12 7.5 19.5t18.5 7.5h31q23 0 38 15.5t15 37.5v399l154 287l-154 287v424q0 23 -15 38t-38 15h-31q-10 0 -18 7.5t-8 18.5v150q0 10 7.5 17.5t18.5 7.5h82q88 0 151.5 -63t63.5 -153v-462l166 -287l-166 -287v-430q0 -90 -63.5 -153.5t-151.5 -63.5h-82 q-10 0 -18 8t-8 19v141z" />
<glyph unicode="~" horiz-adv-x="903" d="M84.5 754q2.5 12 11.5 16l129 74q9 6 19.5 3.5t15.5 -11.5l21 -37q10 -20 32 -26t41 5l131 76q77 43 164 19t131 -99l35 -61q6 -9 3.5 -19t-11.5 -16l-131 -76q-9 -5 -20 -1.5t-15 13.5l-16 25q-10 20 -32 25.5t-42 -5.5l-129 -75q-78 -44 -165 -20.5t-130 100.5l-39 69 q-6 9 -3.5 21z" />
<glyph unicode="&#xa1;" horiz-adv-x="456" d="M123 27v1116q0 11 7.5 18.5t19.5 7.5h159q10 0 17.5 -7.5t7.5 -18.5v-1116q0 -12 -7 -19.5t-18 -7.5h-159q-12 0 -19.5 7.5t-7.5 19.5zM123 1282v166q0 12 7.5 19.5t19.5 7.5h159q11 0 18 -7.5t7 -19.5v-166q0 -10 -7 -17.5t-18 -7.5h-159q-12 0 -19.5 7t-7.5 18z" />
<glyph unicode="&#xa2;" horiz-adv-x="864" d="M113 311v836q0 89 63.5 152t151.5 63h22v86q0 12 7.5 19.5t19.5 7.5h123q11 0 18.5 -7.5t7.5 -19.5v-86h21q89 0 153 -63t64 -152v-137q0 -10 -8 -17.5t-19 -7.5h-159q-11 0 -19 7.5t-8 17.5v98q0 22 -15.5 37.5t-37.5 15.5h-119q-23 0 -39 -15.5t-16 -37.5v-766 q0 -22 16 -37.5t39 -15.5h129q22 0 37.5 15.5t15.5 37.5v199q0 10 7 17t18 7h162q10 0 17 -6.5t7 -17.5v-230q0 -89 -63.5 -152t-151.5 -63h-33v-69q0 -12 -7.5 -19.5t-18.5 -7.5h-123q-11 0 -19 7.5t-8 19.5v69h-20q-88 0 -151.5 63t-63.5 152z" />
<glyph unicode="&#xa3;" horiz-adv-x="927" d="M82 0v193h12q23 0 38 16t15 39v368h-38q-12 0 -19.5 8t-7.5 19v150q0 11 7.5 18.5t19.5 7.5h38v449q0 90 64 152.5t154 62.5h219q88 0 151.5 -62.5t63.5 -152.5v-135q0 -12 -7.5 -19.5t-19.5 -7.5h-160q-11 0 -17.5 7.5t-6.5 19.5v96q0 23 -16 38t-40 15h-118 q-22 0 -38 -15t-16 -38v-410h320q10 0 17.5 -7.5t7.5 -18.5v-150q0 -11 -7.5 -19t-17.5 -8h-320v-423h220q21 0 36.5 13.5t16.5 33.5q4 26 26 26h160q11 0 19 -8t8 -18v-25q0 -89 -64 -152t-153 -63h-547z" />
<glyph unicode="&#xa4;" horiz-adv-x="915" d="M111 512l45 45q-11 37 -11 66v190q0 34 9 64l-41 43q-18 18 0 36l104 107q19 19 39 0l43 -45q30 10 61 10h191q32 0 65 -10l43 43q19 19 37 0l107 -105q19 -19 0 -38l-43 -44q8 -27 8 -61v-190q0 -31 -10 -64l47 -45q17 -18 -2 -37l-107 -104q-18 -18 -34 -2l-46 45 q-33 -10 -65 -10h-191q-37 0 -61 8l-45 -45q-18 -17 -37 2l-104 106q-19 19 -2 35zM356 653q0 -22 16.5 -37.5t39.5 -15.5h90q23 0 38 15.5t15 37.5v121q0 23 -15 38t-38 15h-90q-24 0 -40 -15t-16 -38v-121z" />
<glyph unicode="&#xa5;" horiz-adv-x="874" d="M85 1467q2 6 7 7l4 1h176q2 0 5.5 -0.5t9.5 -7.5t8 -19l143 -594l142 594q3 12 9 19t11 7l4 1h174q2 0 5 -0.5t7 -7.5t1 -19l-191 -758h121q12 0 19.5 -7.5t7.5 -18.5v-150q0 -11 -7.5 -19t-19.5 -8h-172l-6 -26v-66h178q12 0 19.5 -7.5t7.5 -18.5v-150q0 -11 -7.5 -18.5 t-19.5 -7.5h-178v-166q0 -12 -7.5 -19.5t-19.5 -7.5h-158q-11 0 -18.5 7.5t-7.5 19.5v166h-182q-10 0 -17.5 7.5t-7.5 18.5v150q0 11 7.5 18.5t17.5 7.5h182v66l-6 26h-176q-10 0 -17.5 8t-7.5 19v150q0 11 7.5 18.5t17.5 7.5h126l-190 758q-3 13 -1 19z" />
<glyph unicode="&#xa6;" horiz-adv-x="456" d="M123 -186v778q0 11 7.5 17.5t19.5 6.5h159q11 0 18 -7t7 -17v-778q0 -11 -7.5 -19t-17.5 -8h-159q-12 0 -19.5 8t-7.5 19zM123 844v817q0 11 7.5 18t19.5 7h159q11 0 18 -7t7 -18v-817q0 -10 -7 -17.5t-18 -7.5h-159q-12 0 -19.5 7t-7.5 18z" />
<glyph unicode="&#xa7;" horiz-adv-x="909" d="M92 1067v238q0 90 63.5 152.5t151.5 62.5h256q90 0 153.5 -62.5t63.5 -152.5v-136q0 -12 -7.5 -19t-18.5 -7h-160q-11 0 -19 7t-8 19v97q0 23 -15.5 38t-37.5 15h-156q-23 0 -39 -15t-16 -38v-168q0 -20 13.5 -35.5t33.5 -18.5h213q89 0 153 -63t64 -152v-186 q0 -45 -20 -90q57 -64 57 -145v-238q0 -90 -63.5 -153.5t-153.5 -63.5h-256q-88 0 -151.5 63.5t-63.5 153.5v135q0 12 7.5 19.5t19.5 7.5h159q11 0 18 -7.5t7 -19.5v-96q0 -23 16 -38t39 -15h156q22 0 37.5 15t15.5 38v168q0 37 -39 51h-223q-88 0 -151.5 63t-63.5 152v186 q0 45 20 93q-55 61 -55 145zM340 674q0 -22 15 -37.5t38 -15.5h135q39 0 39 53v117q0 22 -15.5 37.5t-37.5 15.5h-121q-23 0 -38 -15.5t-15 -37.5v-117z" />
<glyph unicode="&#xa8;" horiz-adv-x="782" d="M92 1255q0 46 34 79.5t81 33.5q46 0 79 -33.5t33 -79.5q0 -47 -33 -80.5t-79 -33.5q-47 0 -81 33.5t-34 80.5zM465 1255q0 46 34 79.5t81 33.5q45 0 77.5 -33.5t32.5 -79.5q0 -47 -32 -80.5t-78 -33.5q-47 0 -81 33.5t-34 80.5z" />
<glyph unicode="&#xa9;" horiz-adv-x="1617" d="M82 737q0 204 95.5 375.5t263 271t368.5 99.5q152 0 287 -58.5t231.5 -158.5t152.5 -238t56 -291q0 -204 -95 -375t-262.5 -270.5t-369.5 -99.5q-201 0 -368.5 99.5t-263 270.5t-95.5 375zM279 737q0 -112 41 -213.5t111 -175t168.5 -117t209.5 -43.5t210.5 43.5 t169.5 117t111 175t41 213.5t-41 213.5t-111 175t-169.5 117t-210.5 43.5t-209.5 -43.5t-168.5 -117t-111 -175t-41 -213.5zM635 446v570q0 46 34 80t83 34h114q49 0 83 -34t34 -80v-64q0 -11 -7.5 -17.5t-19.5 -6.5h-61q-11 0 -19 7t-8 17v41q0 12 -8 20.5t-20 8.5h-64 q-11 0 -18.5 -8.5t-7.5 -20.5v-530q0 -11 8 -20t18 -9h70q12 0 20 9t8 20v94q0 11 7.5 18t19.5 7h60q11 0 18.5 -7.5t7.5 -17.5v-111q0 -47 -34 -80.5t-81 -33.5h-120q-49 0 -83 33.5t-34 80.5z" />
<glyph unicode="&#xaa;" horiz-adv-x="505" d="M63 713l130 735q2 12 7.5 19t9.5 7l5 1h76q2 0 5 -0.5t9 -7.5t8 -19l129 -735q2 -11 -1.5 -17.5t-8.5 -7.5h-4h-78q-2 0 -5 0.5t-9 7t-8 17.5l-15 92h-120l-15 -92q-2 -11 -7.5 -17.5t-10.5 -7.5h-4h-78q-2 0 -5 0.5t-7.5 7t-2.5 17.5zM211 913h84l-41 318z" />
<glyph unicode="&#xab;" horiz-adv-x="774" d="M70 694q-16 26 0 51l145 256q6 11 14.5 17.5t13.5 7.5h5h182q2 0 4 -1t5 -6.5t-5 -17.5l-155 -280l155 -281q6 -13 5 -19t-5 -7h-4h-182q-19 -1 -33 26zM340 694q-16 26 0 51l145 256q7 11 16 17.5t14 7.5h5h182q2 0 4.5 -1t5 -6.5t-6.5 -17.5l-156 -280l156 -281 q7 -13 6.5 -19t-5.5 -7h-4h-182q-19 -1 -35 26z" />
<glyph unicode="&#xac;" horiz-adv-x="1028" d="M102 643v150q0 11 7.5 18.5t19.5 7.5h772q10 0 17.5 -7.5t7.5 -18.5v-361q0 -12 -7 -19t-18 -7h-149q-11 0 -19 7t-8 19v184h-596q-12 0 -19.5 8t-7.5 19z" />
<glyph unicode="&#xad;" horiz-adv-x="827" d="M102 643v150q0 11 7.5 18.5t19.5 7.5h571q10 0 17.5 -7.5t7.5 -18.5v-150q0 -11 -7.5 -19t-17.5 -8h-571q-12 0 -19.5 8t-7.5 19z" />
<glyph unicode="&#xae;" horiz-adv-x="1617" d="M82 737q0 204 95.5 375.5t263 271t368.5 99.5q152 0 287 -58.5t231.5 -158.5t152.5 -238t56 -291q0 -204 -95 -375t-262.5 -270.5t-369.5 -99.5q-201 0 -368.5 99.5t-263 270.5t-95.5 375zM279 737q0 -112 41 -213.5t111 -175t168.5 -117t209.5 -43.5t210.5 43.5 t169.5 117t111 175t41 213.5t-41 213.5t-111 175t-169.5 117t-210.5 43.5t-209.5 -43.5t-168.5 -117t-111 -175t-41 -213.5zM641 362v736q0 12 7 19t18 7h215q46 0 79 -33.5t33 -80.5v-244q0 -35 -20 -63.5t-53 -40.5l75 -300q3 -12 1 -17.5t-6 -6.5h-5h-76q-18 -1 -26 24 l-74 291h-55v-291q0 -10 -8 -17t-19 -7h-61q-11 0 -18 7t-7 17zM754 756h98q12 0 21.5 8t9.5 20v205q0 11 -9.5 20t-21.5 9h-98v-262z" />
<glyph unicode="&#xaf;" horiz-adv-x="806" d="M92 1155v64q0 26 27 26h571q11 0 18 -7t7 -19v-64q0 -11 -7.5 -19t-17.5 -8h-571q-12 0 -19.5 8t-7.5 19z" />
<glyph unicode="&#xb0;" horiz-adv-x="536" d="M82 1405q0 77 54 131.5t132 54.5q77 0 132 -55t55 -131q0 -78 -55 -132t-132 -54q-78 0 -132 54t-54 132zM199 1405q0 -29 20 -49.5t49 -20.5t49.5 20.5t20.5 49.5t-20.5 49.5t-49.5 20.5t-49 -20.5t-20 -49.5z" />
<glyph unicode="&#xb1;" horiz-adv-x="827" d="M102 252v149q0 11 7.5 19t19.5 8h571q10 0 17.5 -8t7.5 -19v-149q0 -10 -7.5 -17.5t-17.5 -7.5h-571q-12 0 -19.5 7t-7.5 18zM102 791v149q0 11 7.5 19t19.5 8h184v184q0 11 7.5 18t17.5 7h149q11 0 19 -7.5t8 -17.5v-184h186q10 0 17.5 -8t7.5 -19v-149q0 -11 -7.5 -19 t-17.5 -8h-186v-184q0 -12 -8 -19.5t-19 -7.5h-149q-11 0 -18 7.5t-7 19.5v184h-184q-12 0 -19.5 8t-7.5 19z" />
<glyph unicode="&#xb2;" horiz-adv-x="600" d="M123 707v94q10 17 26 46t57 105.5t72.5 139t57.5 122t26 78.5v56q0 12 -8 20t-20 8h-60q-11 0 -19.5 -8t-8.5 -20v-43q0 -5 -4.5 -9t-10.5 -4h-84q-16 0 -16 13v63q0 47 35 81t82 34h112q47 0 81 -34t34 -81v-76q0 -30 -58.5 -153t-116.5 -231l-58 -107h221q14 0 14 -15 v-79q0 -15 -14 -15h-328q-5 0 -8.5 4.5t-3.5 10.5z" />
<glyph unicode="&#xb3;" horiz-adv-x="602" d="M123 1305v65q0 46 34.5 79.5t80.5 33.5h127q46 0 80 -33.5t34 -79.5v-207q0 -35 -20 -65q20 -30 20 -64v-235q0 -47 -34 -82t-80 -35h-125q-46 0 -80.5 35t-34.5 82v63q0 15 14 15h84q6 0 10.5 -4.5t4.5 -10.5v-47q0 -12 8 -21.5t20 -9.5h70q12 0 21.5 9.5t9.5 21.5v199 q0 11 -9.5 19.5t-21.5 8.5h-47q-10 0 -10 15v80q0 14 14 14h43q12 0 21.5 9t9.5 20v168q0 12 -9.5 20t-21.5 8h-72q-12 0 -20 -8t-8 -20v-43q0 -5 -4.5 -10t-8.5 -5h-86q-6 0 -10 5t-4 10z" />
<glyph unicode="&#xb4;" horiz-adv-x="425" d="M94.5 1157q-3.5 6 3.5 19l70 155q4 12 11.5 18.5t12.5 7.5l5 1h127q18 0 0 -27l-129 -182h-91q-2 0 -4 1t-5.5 7z" />
<glyph unicode="&#xb5;" horiz-adv-x="907" d="M123 -281v1278q0 12 7.5 19.5t19.5 7.5h159q11 0 18 -7.5t7 -19.5v-766q1 -20 17 -33.5t38 -13.5h131q23 0 38 16t15 38v759q0 12 8 19.5t19 7.5h158q26 0 26 -27v-970q0 -12 -6.5 -19.5t-17.5 -7.5h-426v-281q0 -12 -7 -19t-18 -7h-159q-27 0 -27 26z" />
<glyph unicode="&#xb6;" horiz-adv-x="1228" d="M123 807v453q0 89 63.5 152t151.5 63h741q11 0 19 -7.5t8 -19.5v-150q0 -10 -8 -17t-19 -7h-24v-1247q0 -12 -7 -19.5t-18 -7.5h-162q-11 0 -17.5 7.5t-6.5 19.5v1247h-62v-1247q0 -12 -6.5 -19.5t-17.5 -7.5h-162q-11 0 -18 7.5t-7 19.5v565h-233q-88 0 -151.5 63 t-63.5 152z" />
<glyph unicode="&#xb7;" horiz-adv-x="380" d="M82 635v168q0 12 8 19t19 7h163q11 0 19 -7t8 -19v-168q0 -12 -8 -19.5t-19 -7.5h-163q-11 0 -19 7.5t-8 19.5z" />
<glyph unicode="&#xb8;" horiz-adv-x="372" d="M92 -106l62 114h86l-35 -65h24q21 0 36.5 -14.5t15.5 -34.5v-146q0 -21 -15.5 -36t-36.5 -15h-88q-20 0 -34.5 14.5t-14.5 36.5v25q0 11 7.5 18.5t19.5 7.5h14q10 0 17.5 -7.5t7.5 -18.5q0 -5 4 -9t10 -4h27q12 0 12 13v92q0 14 -12 14h-27q-14 0 -14 -14v-10h-66v39z " />
<glyph unicode="&#xb9;" horiz-adv-x="432" d="M123 1364v43l74 68h98q6 0 10 -4t4 -9v-762q0 -12 -14 -12h-86q-12 0 -12 12v652h-62q-12 0 -12 12z" />
<glyph unicode="&#xba;" horiz-adv-x="497" d="M72 797v569q0 46 34 80.5t80 34.5h125q46 0 80.5 -34.5t34.5 -80.5v-569q0 -47 -34.5 -81t-80.5 -34h-125q-46 0 -80 34t-34 81zM186 813q0 -11 7.5 -20t19.5 -9h70q13 0 21.5 9t8.5 20v530q0 12 -8.5 20.5t-21.5 8.5h-70q-12 0 -19.5 -8.5t-7.5 -20.5v-530z" />
<glyph unicode="&#xbb;" horiz-adv-x="774" d="M63 1018.5q1 5.5 5 6.5l4 1h182q19 0 33 -25l145 -256q19 -25 0 -51l-145 -254q-6 -12 -14.5 -18.5t-13.5 -7.5h-5h-182l-7 3q-6 6 3 23l157 281l-157 280q-6 12 -5 17.5zM333 1018.5q1 5.5 5 6.5l4 1h182q19 0 33 -25l148 -256q16 -25 0 -51l-148 -254 q-6 -12 -14.5 -18.5t-13.5 -7.5h-5h-182l-7 3q-6 6 3 23l158 281l-158 280q-6 12 -5 17.5z" />
<glyph unicode="&#xbc;" horiz-adv-x="1216" d="M123 1364v43l74 68h98q6 0 10 -4t4 -9v-762q0 -12 -14 -12h-86q-12 0 -12 12v652h-62q-12 0 -12 12zM193.5 100q-3.5 6 3.5 19l600 1218q6 12 14 18.5t13 7.5l5 1h148q2 0 4 -1t5 -7t-5 -19l-606 -1218q-5 -12 -13 -18.5t-13 -7.5l-5 -1h-141q-2 0 -4 1t-5.5 7zM719 133 v94l219 549q2 5 5.5 8t6.5 4h2h86q6 1 10.5 -3t4.5 -9v-549h26q15 0 15 -14v-80q0 -14 -15 -14h-26v-107q0 -5 -4.5 -8.5t-10.5 -3.5h-86q-14 0 -14 12v107h-207q-12 0 -12 14zM834 227h108v332z" />
<glyph unicode="&#xbd;" horiz-adv-x="1277" d="M123 1364v43l74 68h98q6 0 10 -4t4 -9v-762q0 -12 -14 -12h-86q-12 0 -12 12v652h-62q-12 0 -12 12zM195.5 100q-3.5 6 3.5 19l600 1218q6 12 14 18.5t13 7.5l5 1h148q2 0 4 -1t5 -7t-5 -19l-606 -1218q-5 -12 -13 -18.5t-13 -7.5l-5 -1h-141q-2 0 -4 1t-5.5 7zM801 12 v94q10 17 26 46t57 106t72.5 139t57.5 122t26 79v55q0 13 -8 22t-20 9h-60q-11 0 -19.5 -9t-8.5 -22v-41q0 -14 -15 -14h-84q-14 0 -14 14v62q0 49 33.5 83t81.5 34h112q48 0 81.5 -34t33.5 -83v-76q0 -30 -58.5 -153t-116.5 -231l-58 -108h223q5 0 8.5 -4t3.5 -8v-82 q0 -4 -3.5 -8t-8.5 -4h-330q-5 0 -8.5 4t-3.5 8z" />
<glyph unicode="&#xbe;" horiz-adv-x="1292" d="M123 1305v65q0 46 34.5 79.5t80.5 33.5h127q46 0 80 -33.5t34 -79.5v-207q0 -35 -20 -65q20 -30 20 -64v-235q0 -47 -34 -82t-80 -35h-125q-46 0 -80.5 35t-34.5 82v63q0 15 14 15h84q6 0 10.5 -4.5t4.5 -10.5v-47q0 -12 8 -21.5t20 -9.5h70q12 0 21.5 9.5t9.5 21.5v199 q0 11 -9.5 19.5t-21.5 8.5h-47q-10 0 -10 15v80q0 14 14 14h43q12 0 21.5 9t9.5 20v168q0 12 -9.5 20t-21.5 8h-72q-12 0 -20 -8t-8 -20v-43q0 -5 -4.5 -10t-8.5 -5h-86q-6 0 -10 5t-4 10zM288 100q-3 6 5 19l600 1218q5 12 13 18.5t13 7.5l5 1h147q2 0 4 -1t5.5 -7 t-3.5 -19l-606 -1218q-5 -12 -13 -18.5t-13 -7.5l-5 -1h-143q-2 0 -4 1t-5 7zM795 133v94l219 549q2 5 5.5 8t6.5 4h2h86q6 1 9 -3t3 -9v-549h29q14 0 14 -14v-80q0 -14 -14 -14h-29v-107q0 -12 -12 -12h-86q-14 0 -14 12v107h-207q-12 0 -12 14zM909 227h109v332z" />
<glyph unicode="&#xbf;" horiz-adv-x="815" d="M82 207v430q0 90 63.5 153.5t151.5 63.5q23 0 38 15t15 38v236q0 10 8 18t19 8h160q11 0 18.5 -7.5t7.5 -18.5v-269q0 -89 -63.5 -152t-151.5 -63q-23 0 -39 -15.5t-16 -37.5v-360q0 -23 16 -38t39 -15h119q22 0 37.5 15t15.5 38v96q0 12 8 19.5t19 7.5h160 q11 0 18.5 -7.5t7.5 -19.5v-135q0 -90 -63.5 -153.5t-153.5 -63.5h-219q-88 0 -151.5 63.5t-63.5 153.5zM348 1282v166q0 12 8 19.5t19 7.5h160q26 0 26 -27v-166q0 -11 -7 -18t-19 -7h-160q-11 0 -19 7.5t-8 17.5z" />
<glyph unicode="&#xc0;" horiz-adv-x="882" d="M84 27l246 1421q1 12 7.5 19t12.5 7l6 1h170q3 0 7 -0.5t11.5 -7.5t8.5 -19l246 -1421q2 -12 -2 -18.5t-9 -7.5l-4 -1h-176q-2 0 -5 0.5t-8.5 7.5t-6.5 19l-35 196h-223l-35 -196q-1 -12 -6 -18.5t-10 -7.5l-5 -1h-176q-2 0 -5 0.5t-7 7.5t-2 19zM254 1741q-16 25 0 26 h127q19 1 29 -26l69 -156q5 -13 3.5 -19t-5.5 -6l-4 -1h-90zM362 424h158l-80 582z" />
<glyph unicode="&#xc1;" horiz-adv-x="882" d="M84 27l246 1421q1 12 7.5 19t12.5 7l6 1h170q3 0 7 -0.5t11.5 -7.5t8.5 -19l246 -1421q2 -12 -2 -18.5t-9 -7.5l-4 -1h-176q-2 0 -5 0.5t-8.5 7.5t-6.5 19l-35 196h-223l-35 -196q-1 -12 -6 -18.5t-10 -7.5l-5 -1h-176q-2 0 -5 0.5t-7 7.5t-2 19zM362 424h158l-80 582z M395.5 1572q0.5 5 3.5 13l70 156q4 12 11.5 18.5t12.5 6.5l5 1h127l7 -3q4 -6 -7 -23l-129 -182h-90h-2t-3.5 1.5t-4 4t-1 7.5z" />
<glyph unicode="&#xc2;" horiz-adv-x="882" d="M84 27l246 1421q1 12 7.5 19t12.5 7l6 1h170q3 0 7 -0.5t11.5 -7.5t8.5 -19l246 -1421q2 -12 -2 -18.5t-9 -7.5l-4 -1h-176q-2 0 -5 0.5t-8.5 7.5t-6.5 19l-35 196h-223l-35 -196q-1 -12 -6 -18.5t-10 -7.5l-5 -1h-176q-2 0 -5 0.5t-7 7.5t-2 19zM276.5 1568q-0.5 3 0 7 t2.5 10l69 156q5 12 13 18.5t13 6.5l5 1h127q19 1 29 -26l71 -156q4 -13 2.5 -19t-6.5 -6l-4 -1h-92l-66 92l-63 -92h-90h-1q-1 0 -2.5 0.5t-3 1.5t-2.5 2.5t-1.5 4.5zM362 424h158l-80 582z" />
<glyph unicode="&#xc3;" horiz-adv-x="882" d="M84 27l246 1421q1 12 7.5 19t12.5 7l6 1h170q3 0 7 -0.5t11.5 -7.5t8.5 -19l246 -1421q2 -12 -2 -18.5t-9 -7.5l-4 -1h-176q-2 0 -5 0.5t-8.5 7.5t-6.5 19l-35 196h-223l-35 -196q-1 -12 -6 -18.5t-10 -7.5l-5 -1h-176q-2 0 -5 0.5t-7 7.5t-2 19zM237.5 1568q-0.5 3 0 7 t2.5 10l71 156q4 12 11.5 18.5t12.5 6.5l5 1h82q20 0 35 -26l39 -60l61 86h90h1q1 0 2.5 -0.5t3 -1.5t2.5 -2.5t1.5 -4.5t0 -7t-2.5 -10l-69 -156q-5 -12 -13 -18.5t-13 -6.5l-5 -1h-92l-64 92l-61 -92h-90h-1q-1 0 -2.5 0.5t-3 1.5t-2.5 2.5t-1.5 4.5zM362 424h158l-80 582 z" />
<glyph unicode="&#xc4;" horiz-adv-x="882" d="M84 27l246 1421q1 12 7.5 19t12.5 7l6 1h170q3 0 7 -0.5t11.5 -7.5t8.5 -19l246 -1421q2 -12 -2 -18.5t-9 -7.5l-4 -1h-176q-2 0 -5 0.5t-8.5 7.5t-6.5 19l-35 196h-223l-35 -196q-1 -12 -6 -18.5t-10 -7.5l-5 -1h-176q-2 0 -5 0.5t-7 7.5t-2 19zM143 1665 q0 46 33.5 79.5t79.5 33.5q47 0 80 -33.5t33 -79.5q0 -47 -33 -81t-80 -34q-46 0 -79.5 34t-33.5 81zM362 424h158l-80 582zM514 1665q0 46 34.5 79.5t80.5 33.5q47 0 79.5 -33.5t32.5 -79.5q0 -48 -32.5 -81.5t-79.5 -33.5q-46 0 -80.5 34t-34.5 81z" />
<glyph unicode="&#xc5;" horiz-adv-x="882" d="M84 27l238 1376q-66 56 -66 143q0 77 54 132t130 55q78 0 132.5 -55t54.5 -132q0 -87 -66 -143l238 -1376q2 -12 -2 -18.5t-9 -7.5l-4 -1h-176q-2 0 -5 0.5t-8.5 7.5t-6.5 19l-35 196h-223l-35 -196q-1 -12 -6 -18.5t-10 -7.5l-5 -1h-176q-2 0 -5 0.5t-7 7.5t-2 19z M362 424h158l-80 582zM371 1546q0 -29 20.5 -49t48.5 -20q30 0 51 20t21 49t-21.5 49.5t-50.5 20.5q-28 0 -48.5 -20.5t-20.5 -49.5z" />
<glyph unicode="&#xc6;" horiz-adv-x="1138" d="M84 27l246 1421q1 12 7.5 19t12.5 7l6 1h654q11 0 17.5 -7.5t6.5 -19.5v-150q0 -26 -24 -26h-426l67 -395h285q10 0 17.5 -7.5t7.5 -17.5v-150q0 -11 -7.5 -18.5t-17.5 -7.5h-250l82 -475h252q11 0 19 -7.5t8 -19.5v-147q0 -12 -8 -19.5t-19 -7.5h-412q-2 0 -5 0.5 t-8.5 7.5t-6.5 19l-35 196h-223l-35 -196q-1 -12 -6 -18.5t-10 -7.5l-5 -1h-176q-2 0 -5 0.5t-7 7.5t-2 19zM362 424h158l-80 582z" />
<glyph unicode="&#xc7;" horiz-adv-x="868" d="M113 207v1061q0 90 63.5 152.5t151.5 62.5h223q90 0 152.5 -62.5t62.5 -152.5v-135q0 -12 -7 -19.5t-18 -7.5h-159q-12 0 -19.5 7.5t-7.5 19.5v96q0 23 -15.5 38t-37.5 15h-123q-23 0 -39 -15t-16 -38v-991q0 -22 16 -38t39 -16h131q23 0 38 16t15 38v196q0 12 8 19.5 t19 7.5h160q26 0 26 -27v-227q0 -90 -63.5 -153.5t-151.5 -63.5h-90l-18 -31h24q22 0 36.5 -14.5t14.5 -34.5v-146q0 -22 -14.5 -36.5t-36.5 -14.5h-86q-22 0 -35.5 14.5t-13.5 36.5v25q0 12 7 19.5t18 7.5h14q12 0 19.5 -7.5t7.5 -19.5q0 -5 4 -8.5t8 -3.5h29q5 0 8.5 3.5 t3.5 8.5v92q0 6 -3.5 10.5t-8.5 4.5h-29q-5 0 -8.5 -4.5t-3.5 -10.5v-10h-66v39l41 80h-55q-88 0 -151.5 63.5t-63.5 153.5z" />
<glyph unicode="&#xc8;" horiz-adv-x="837" d="M123 27v1421q0 12 7.5 19.5t19.5 7.5h559q11 0 18.5 -7.5t7.5 -19.5v-150q0 -12 -7.5 -19t-18.5 -7h-375v-395h301q11 0 19 -7.5t8 -17.5v-150q0 -10 -8 -18t-19 -8h-301v-475h387q11 0 17.5 -7.5t6.5 -19.5v-147q0 -12 -6.5 -19.5t-17.5 -7.5h-571q-12 0 -19.5 7.5 t-7.5 19.5zM248 1741q-16 25 0 26h127q19 1 31 -26l69 -156q4 -13 2.5 -19t-5.5 -6l-5 -1h-90z" />
<glyph unicode="&#xc9;" horiz-adv-x="837" d="M123 27v1421q0 12 7.5 19.5t19.5 7.5h559q11 0 18.5 -7.5t7.5 -19.5v-150q0 -12 -7.5 -19t-18.5 -7h-375v-395h301q11 0 19 -7.5t8 -17.5v-150q0 -10 -8 -18t-19 -8h-301v-475h387q11 0 17.5 -7.5t6.5 -19.5v-147q0 -12 -6.5 -19.5t-17.5 -7.5h-571q-12 0 -19.5 7.5 t-7.5 19.5zM374.5 1568q-0.5 3 0 7t2.5 10l69 156q5 12 13 18.5t13 6.5l5 1h127l7 -3q4 -6 -7 -23l-129 -182h-90h-1q-1 0 -2.5 0.5t-3 1.5t-2.5 2.5t-1.5 4.5z" />
<glyph unicode="&#xca;" horiz-adv-x="837" d="M123 27v1421q0 12 7.5 19.5t19.5 7.5h559q11 0 18.5 -7.5t7.5 -19.5v-150q0 -12 -7.5 -19t-18.5 -7h-375v-395h301q11 0 19 -7.5t8 -17.5v-150q0 -10 -8 -18t-19 -8h-301v-475h387q11 0 17.5 -7.5t6.5 -19.5v-147q0 -12 -6.5 -19.5t-17.5 -7.5h-571q-12 0 -19.5 7.5 t-7.5 19.5zM257.5 1568q-0.5 3 0 7t2.5 10l72 156q4 12 11 18.5t12 6.5l5 1h127q19 1 31 -26l70 -156q4 -13 2.5 -19t-6.5 -6l-4 -1h-93l-63 92l-66 -92h-90h-1q-1 0 -2.5 0.5t-3 1.5t-2.5 2.5t-1.5 4.5z" />
<glyph unicode="&#xcb;" horiz-adv-x="837" d="M123 27v1421q0 12 7.5 19.5t19.5 7.5h559q11 0 18.5 -7.5t7.5 -19.5v-150q0 -12 -7.5 -19t-18.5 -7h-375v-395h301q11 0 19 -7.5t8 -17.5v-150q0 -10 -8 -18t-19 -8h-301v-475h387q11 0 17.5 -7.5t6.5 -19.5v-147q0 -12 -6.5 -19.5t-17.5 -7.5h-571q-12 0 -19.5 7.5 t-7.5 19.5zM129 1665q0 46 33.5 79.5t79.5 33.5q47 0 79.5 -33.5t32.5 -79.5q0 -48 -32.5 -81.5t-79.5 -33.5q-46 0 -79.5 34t-33.5 81zM500 1665q0 46 34 79.5t80 33.5q47 0 80 -33.5t33 -79.5q0 -47 -33 -81t-80 -34q-46 0 -80 34t-34 81z" />
<glyph unicode="&#xcc;" horiz-adv-x="456" d="M39 1741q-16 25 0 26h129q19 1 29 -26l69 -156q5 -13 3.5 -19t-5.5 -6l-4 -1h-92zM121 27v1421q0 27 26 27h160q11 0 19 -7.5t8 -19.5v-1421q0 -12 -8 -19.5t-19 -7.5h-160q-26 0 -26 27z" />
<glyph unicode="&#xcd;" horiz-adv-x="456" d="M123 27v1421q0 12 7.5 19.5t19.5 7.5h159q11 0 18 -7.5t7 -19.5v-1421q0 -12 -7 -19.5t-18 -7.5h-159q-12 0 -19.5 7.5t-7.5 19.5zM182.5 1572q0.5 5 3.5 13l70 156q4 12 11.5 18.5t12.5 6.5l5 1h127l7 -3q4 -6 -7 -23l-129 -182h-90h-2t-3.5 1.5t-4 4t-1 7.5z" />
<glyph unicode="&#xce;" horiz-adv-x="456" d="M61 1566.5q-4 5.5 2 18.5l70 156q5 12 13 18.5t13 6.5l5 1h127q18 1 28 -26l72 -156q4 -13 2.5 -19t-5.5 -6l-5 -1h-92l-66 92l-63 -92h-90q-2 0 -4.5 1t-6.5 6.5zM121 27v1421q0 12 7.5 19.5t18.5 7.5h160q11 0 19 -7.5t8 -19.5v-1421q0 -12 -8 -19.5t-19 -7.5h-160 q-11 0 -18.5 7.5t-7.5 19.5z" />
<glyph unicode="&#xcf;" horiz-adv-x="456" d="M-61 1665q0 46 33.5 79.5t80.5 33.5q46 0 79.5 -33.5t33.5 -79.5q0 -47 -33.5 -81t-79.5 -34q-47 0 -80.5 34t-33.5 81zM123 27v1421q0 12 7.5 19.5t19.5 7.5h159q11 0 18 -7.5t7 -19.5v-1421q0 -12 -7 -19.5t-18 -7.5h-159q-12 0 -19.5 7.5t-7.5 19.5zM293 1665 q0 46 34 79.5t81 33.5q45 0 77.5 -33.5t32.5 -79.5q0 -47 -32 -81t-78 -34q-47 0 -81 34t-34 81z" />
<glyph unicode="&#xd0;" horiz-adv-x="899" d="M31 643v150q0 11 7 18.5t19 7.5h66v629q0 12 7.5 19.5t19.5 7.5h421q88 0 151.5 -63t63.5 -152v-1045q0 -89 -63.5 -152t-151.5 -63h-421q-12 0 -19.5 7.5t-7.5 19.5v589h-66q-12 0 -19 8t-7 19zM334 201h186q23 0 38 15.5t15 37.5v967q0 22 -15 37.5t-38 15.5h-186v-455 h86q10 0 17 -7.5t7 -18.5v-150q0 -11 -7 -19t-17 -8h-86v-415z" />
<glyph unicode="&#xd1;" horiz-adv-x="923" d="M123 27v1421q0 12 7.5 19.5t19.5 7.5h157q2 0 6 -0.5t11 -7.5t10 -19l256 -793v793q0 12 6.5 19.5t17.5 7.5h162q11 0 18 -7.5t7 -19.5v-1421q0 -12 -7 -19.5t-18 -7.5h-149q-21 0 -29 27l-264 714v-714q0 -12 -7 -19.5t-18 -7.5h-159q-12 0 -19.5 7.5t-7.5 19.5z M259.5 1568q-0.5 3 0 7t2.5 10l72 156q4 12 11 18.5t12 6.5l5 1h82q20 0 35 -26l39 -60l62 86h90h1q1 0 2.5 -0.5t3 -1.5t2.5 -2.5t1.5 -4.5t0 -7t-2.5 -10l-70 -156q-5 -12 -12.5 -18.5t-12.5 -6.5l-5 -1h-93l-63 92l-62 -92h-90h-1q-1 0 -2.5 0.5t-3 1.5t-2.5 2.5 t-1.5 4.5z" />
<glyph unicode="&#xd2;" horiz-adv-x="892" d="M113 207v1061q0 90 63.5 152.5t151.5 62.5h235q90 0 153.5 -62.5t63.5 -152.5v-1061q0 -90 -63.5 -153.5t-153.5 -63.5h-235q-88 0 -151.5 63.5t-63.5 153.5zM256 1741q-16 25 0 26h127q19 1 31 -26l69 -156q4 -13 2.5 -19t-5.5 -6l-5 -1h-90zM324 238q0 -22 16 -38 t39 -16h135q23 0 38 16t15 38v991q0 23 -15 38t-38 15h-135q-23 0 -39 -15t-16 -38v-991z" />
<glyph unicode="&#xd3;" horiz-adv-x="892" d="M113 207v1061q0 90 63.5 152.5t151.5 62.5h235q90 0 153.5 -62.5t63.5 -152.5v-1061q0 -90 -63.5 -153.5t-153.5 -63.5h-235q-88 0 -151.5 63.5t-63.5 153.5zM324 238q0 -22 16 -38t39 -16h135q23 0 38 16t15 38v991q0 23 -15 38t-38 15h-135q-23 0 -39 -15t-16 -38v-991 zM403.5 1568q-0.5 3 0 7t2.5 10l69 156q5 12 13 18.5t13 6.5l5 1h127l7 -3q4 -6 -7 -23l-129 -182h-90h-1q-1 0 -2.5 0.5t-3 1.5t-2.5 2.5t-1.5 4.5z" />
<glyph unicode="&#xd4;" horiz-adv-x="892" d="M113 207v1061q0 90 63.5 152.5t151.5 62.5h235q90 0 153.5 -62.5t63.5 -152.5v-1061q0 -90 -63.5 -153.5t-153.5 -63.5h-235q-88 0 -151.5 63.5t-63.5 153.5zM276.5 1568q-0.5 3 0 7t2.5 10l69 156q5 12 13 18.5t13 6.5l5 1h127q19 1 29 -26l69 -156q5 -13 3.5 -19 t-5.5 -6l-4 -1h-92l-66 92l-63 -92h-90h-1q-1 0 -2.5 0.5t-3 1.5t-2.5 2.5t-1.5 4.5zM324 238q0 -22 16 -38t39 -16h135q23 0 38 16t15 38v991q0 23 -15 38t-38 15h-135q-23 0 -39 -15t-16 -38v-991z" />
<glyph unicode="&#xd5;" horiz-adv-x="892" d="M113 207v1061q0 90 63.5 152.5t151.5 62.5h235q90 0 153.5 -62.5t63.5 -152.5v-1061q0 -90 -63.5 -153.5t-153.5 -63.5h-235q-88 0 -151.5 63.5t-63.5 153.5zM248 1562q-6 6 2 23l69 156q4 12 11.5 18.5t12.5 6.5l5 1h82q20 0 35 -26l41 -60l59 86h90q2 0 4.5 -1 t6.5 -6.5t-2 -18.5l-70 -156q-5 -12 -13 -18.5t-13 -6.5l-5 -1h-92l-63 92l-62 -92h-90zM324 238q0 -22 16 -38t39 -16h135q23 0 38 16t15 38v991q0 23 -15 38t-38 15h-135q-23 0 -39 -15t-16 -38v-991z" />
<glyph unicode="&#xd6;" horiz-adv-x="892" d="M113 207v1061q0 90 63.5 152.5t151.5 62.5h235q90 0 153.5 -62.5t63.5 -152.5v-1061q0 -90 -63.5 -153.5t-153.5 -63.5h-235q-88 0 -151.5 63.5t-63.5 153.5zM145 1665q0 46 34 79.5t81 33.5t80 -33.5t33 -79.5q0 -47 -33 -81t-80 -34t-81 34t-34 81zM324 238 q0 -22 16 -38t39 -16h135q23 0 38 16t15 38v991q0 23 -15 38t-38 15h-135q-23 0 -39 -15t-16 -38v-991zM518 1665q0 46 34 79.5t81 33.5q46 0 79 -33.5t33 -79.5q0 -47 -33 -81t-79 -34q-47 0 -81 34t-34 81z" />
<glyph unicode="&#xd7;" horiz-adv-x="817" d="M85 1080q1 6 6 6l5 1h199q19 1 33 -26l80 -135l84 135q5 12 12.5 18.5t12.5 6.5l5 1h199h1q1 0 3 -0.5t3.5 -1.5t3 -2.5t1.5 -4.5t-1.5 -7t-4.5 -10l-203 -330l205 -336q6 -13 4.5 -19t-5.5 -6l-5 -1h-193q-14 -1 -32 26l-90 146l-89 -146q-7 -12 -14.5 -18.5t-11.5 -6.5 l-4 -1h-195l-8 3q-6 6 4 23l203 336l-201 330q-8 13 -7 19z" />
<glyph unicode="&#xd8;" horiz-adv-x="884" d="M113 207v1061q0 90 63.5 152.5t151.5 62.5h217l18 57q3 12 10.5 19t14.5 7l6 1h166q1 0 2.5 -1t4.5 -7t-1 -19l-39 -139q45 -62 45 -133v-1061q0 -90 -63.5 -153.5t-151.5 -63.5h-225l-15 -56q-4 -12 -11.5 -18.5t-13.5 -7.5h-5h-162l-5 3q-4 6 1 23l37 140 q-45 57 -45 133zM324 657l165 625h-110q-23 0 -39 -15t-16 -38v-572zM387 184h121q22 0 37.5 16t15.5 38v585z" />
<glyph unicode="&#xd9;" horiz-adv-x="909" d="M123 207v1241q0 12 7.5 19.5t19.5 7.5h159q11 0 18 -7.5t7 -19.5v-1210q0 -22 16 -38t39 -16h131q23 0 38 16t15 38v1210q0 12 8 19.5t19 7.5h160q26 0 26 -27v-1241q0 -90 -63.5 -153.5t-151.5 -63.5h-233q-88 0 -151.5 63.5t-63.5 153.5zM268 1741q-16 25 0 26h127 q19 1 31 -26l70 -156q4 -13 2 -19t-6 -6l-5 -1h-90z" />
<glyph unicode="&#xda;" horiz-adv-x="909" d="M123 207v1241q0 12 7.5 19.5t19.5 7.5h159q11 0 18 -7.5t7 -19.5v-1210q0 -22 16 -38t39 -16h131q23 0 38 16t15 38v1210q0 12 8 19.5t19 7.5h160q26 0 26 -27v-1241q0 -90 -63.5 -153.5t-151.5 -63.5h-233q-88 0 -151.5 63.5t-63.5 153.5zM407.5 1568q-0.5 3 0 7t2.5 10 l71 156q4 12 11.5 18.5t12.5 6.5l5 1h127l7 -3q4 -6 -7 -23l-129 -182h-90h-1q-1 0 -2.5 0.5t-3 1.5t-2.5 2.5t-1.5 4.5z" />
<glyph unicode="&#xdb;" horiz-adv-x="909" d="M123 207v1241q0 12 7.5 19.5t19.5 7.5h159q11 0 18 -7.5t7 -19.5v-1210q0 -22 16 -38t39 -16h131q23 0 38 16t15 38v1210q0 12 8 19.5t19 7.5h160q26 0 26 -27v-1241q0 -90 -63.5 -153.5t-151.5 -63.5h-233q-88 0 -151.5 63.5t-63.5 153.5zM290 1562q-6 6 1 23l69 156 q4 12 11.5 18.5t12.5 6.5l5 1h129q19 1 29 -26l69 -156q5 -13 3.5 -19t-5.5 -6l-4 -1h-92l-65 92l-64 -92h-92z" />
<glyph unicode="&#xdc;" horiz-adv-x="909" d="M123 207v1241q0 12 7.5 19.5t19.5 7.5h159q11 0 18 -7.5t7 -19.5v-1210q0 -22 16 -38t39 -16h131q23 0 38 16t15 38v1210q0 12 8 19.5t19 7.5h160q26 0 26 -27v-1241q0 -90 -63.5 -153.5t-151.5 -63.5h-233q-88 0 -151.5 63.5t-63.5 153.5zM154 1665q0 46 33.5 79.5 t80.5 33.5t80 -33.5t33 -79.5q0 -47 -33 -81t-80 -34t-80.5 34t-33.5 81zM526 1665q0 46 34 79.5t81 33.5q46 0 79.5 -33.5t33.5 -79.5q0 -47 -33.5 -81t-79.5 -34q-47 0 -81 34t-34 81z" />
<glyph unicode="&#xdd;" horiz-adv-x="833" d="M65 1467q2 6 7 7l4 1h176q2 0 5 -0.5t9 -7.5t8 -19l144 -594l141 594q3 12 9 19t11 7l5 1h174q2 0 5 -0.5t6.5 -7.5t0.5 -19l-248 -987v-434q0 -27 -26 -27h-158q-11 0 -19 7.5t-8 19.5v434l-245 987q-3 13 -1 19zM374.5 1568q-0.5 3 0 7t2.5 10l69 156q5 12 13 18.5 t13 6.5l5 1h127l7 -3q4 -6 -7 -23l-129 -182h-90h-1q-1 0 -2.5 0.5t-3 1.5t-2.5 2.5t-1.5 4.5z" />
<glyph unicode="&#xde;" horiz-adv-x="878" d="M123 27v1421q0 12 7.5 19.5t19.5 7.5h159q11 0 18 -7.5t7 -19.5v-227h237q88 0 151.5 -63t63.5 -152v-535q0 -89 -63.5 -152t-151.5 -63h-237v-229q0 -12 -7 -19.5t-18 -7.5h-159q-12 0 -19.5 7.5t-7.5 19.5zM334 449h186q23 0 38 15.5t15 37.5v465q0 22 -15 37.5 t-38 15.5h-186v-571z" />
<glyph unicode="&#xdf;" horiz-adv-x="827" d="M92 27v1233q0 90 63.5 152.5t153.5 62.5h94q11 0 19 -7.5t8 -19.5v-172q0 -10 -8 -17.5t-19 -7.5h-67q-20 0 -32.5 -15.5t-12.5 -37.5v-174h356q11 0 19 -7.5t8 -19.5v-161l-94 -230q90 0 153.5 -62.5t63.5 -152.5v-254q0 -90 -63.5 -152.5t-153.5 -62.5h-95 q-11 0 -18.5 7.5t-7.5 19.5v137q0 10 7.5 17.5t18.5 7.5h68q19 0 32 13t13 32v215q0 23 -15 38t-38 15h-137q-11 0 -19 7.5t-8 17.5v157l94 230h-184v-809q0 -12 -7.5 -19.5t-19.5 -7.5h-147q-11 0 -18 7.5t-7 19.5z" />
<glyph unicode="&#xe0;" d="M72 213v203q0 90 63.5 152.5t151.5 62.5h192v160q0 23 -16 38t-39 15h-86q-23 0 -38 -15t-15 -38v-29q0 -12 -7.5 -19.5t-19.5 -7.5h-139q-11 0 -18 7.5t-7 19.5v55q0 90 63.5 152.5t153.5 62.5h152q88 0 151.5 -62.5t63.5 -152.5v-790q0 -12 -7 -19.5t-18 -7.5h-100 q-29 0 -29 27v30q-2 -2 -13 -10t-13.5 -10t-12.5 -8.5t-13.5 -8t-13.5 -6.5t-16 -6.5t-16.5 -4.5t-20 -4t-21.5 -2t-26 -1h-71q-88 0 -151.5 63.5t-63.5 153.5zM185 1349.5q0 6.5 4 7.5l4 1h129q18 0 28 -27l70 -155q5 -13 3.5 -19t-5.5 -7l-4 -1h-92l-129 182 q-8 12 -8 18.5zM270 231q0 -22 16.5 -37.5t39.5 -15.5h100q23 0 38 15.5t15 37.5v232h-153q-24 0 -40 -15t-16 -38v-179z" />
<glyph unicode="&#xe1;" d="M72 213v203q0 90 63.5 152.5t151.5 62.5h192v160q0 23 -16 38t-39 15h-86q-23 0 -38 -15t-15 -38v-29q0 -12 -7.5 -19.5t-19.5 -7.5h-139q-11 0 -18 7.5t-7 19.5v55q0 90 63.5 152.5t153.5 62.5h152q88 0 151.5 -62.5t63.5 -152.5v-790q0 -12 -7 -19.5t-18 -7.5h-100 q-29 0 -29 27v30q-2 -2 -13 -10t-13.5 -10t-12.5 -8.5t-13.5 -8t-13.5 -6.5t-16 -6.5t-16.5 -4.5t-20 -4t-21.5 -2t-26 -1h-71q-88 0 -151.5 63.5t-63.5 153.5zM270 231q0 -22 16.5 -37.5t39.5 -15.5h100q23 0 38 15.5t15 37.5v232h-153q-24 0 -40 -15t-16 -38v-179z M328.5 1157q-3.5 6 3.5 19l69 155q4 12 11.5 18.5t12.5 7.5l5 1h127q18 0 0 -27l-129 -182h-90q-2 0 -4 1t-5.5 7z" />
<glyph unicode="&#xe2;" d="M72 213v203q0 90 63.5 152.5t151.5 62.5h192v160q0 23 -16 38t-39 15h-86q-23 0 -38 -15t-15 -38v-29q0 -12 -7.5 -19.5t-19.5 -7.5h-139q-11 0 -18 7.5t-7 19.5v55q0 90 63.5 152.5t153.5 62.5h152q88 0 151.5 -62.5t63.5 -152.5v-790q0 -12 -7 -19.5t-18 -7.5h-100 q-29 0 -29 27v30q-2 -2 -13 -10t-13.5 -10t-12.5 -8.5t-13.5 -8t-13.5 -6.5t-16 -6.5t-16.5 -4.5t-20 -4t-21.5 -2t-26 -1h-71q-88 0 -151.5 63.5t-63.5 153.5zM215.5 1136q-3.5 6 3.5 19l70 156q4 12 11 18.5t12 6.5l5 1h127q19 1 31 -26l70 -156q4 -13 2.5 -19t-5.5 -7 l-5 -1h-93l-63 93l-66 -93h-90q-2 0 -4 1t-5.5 7zM270 231q0 -22 16.5 -37.5t39.5 -15.5h100q23 0 38 15.5t15 37.5v232h-153q-24 0 -40 -15t-16 -38v-179z" />
<glyph unicode="&#xe3;" d="M72 213v203q0 90 63.5 152.5t151.5 62.5h192v160q0 23 -16 38t-39 15h-86q-23 0 -38 -15t-15 -38v-29q0 -12 -7.5 -19.5t-19.5 -7.5h-139q-11 0 -18 7.5t-7 19.5v55q0 90 63.5 152.5t153.5 62.5h152q88 0 151.5 -62.5t63.5 -152.5v-790q0 -12 -7 -19.5t-18 -7.5h-100 q-29 0 -29 27v30q-2 -2 -13 -10t-13.5 -10t-12.5 -8.5t-13.5 -8t-13.5 -6.5t-16 -6.5t-16.5 -4.5t-20 -4t-21.5 -2t-26 -1h-71q-88 0 -151.5 63.5t-63.5 153.5zM178.5 1157q-3.5 6 3.5 19l70 155q4 12 11.5 18.5t12.5 7.5l5 1h81q19 0 35 -27l41 -59l62 86h90q2 0 4 -1 t5.5 -7t-3.5 -19l-70 -155q-4 -12 -11 -19t-12 -7l-5 -1h-92l-66 92l-61 -92h-91q-2 0 -4 1t-5.5 7zM270 231q0 -22 16.5 -37.5t39.5 -15.5h100q23 0 38 15.5t15 37.5v232h-153q-24 0 -40 -15t-16 -38v-179z" />
<glyph unicode="&#xe4;" d="M72 213v203q0 90 63.5 152.5t151.5 62.5h192v160q0 23 -16 38t-39 15h-86q-23 0 -38 -15t-15 -38v-29q0 -12 -7.5 -19.5t-19.5 -7.5h-139q-11 0 -18 7.5t-7 19.5v55q0 90 63.5 152.5t153.5 62.5h152q88 0 151.5 -62.5t63.5 -152.5v-790q0 -12 -7 -19.5t-18 -7.5h-100 q-29 0 -29 27v30q-2 -2 -13 -10t-13.5 -10t-12.5 -8.5t-13.5 -8t-13.5 -6.5t-16 -6.5t-16.5 -4.5t-20 -4t-21.5 -2t-26 -1h-71q-88 0 -151.5 63.5t-63.5 153.5zM88 1255q0 46 34 79.5t81 33.5q46 0 79 -33.5t33 -79.5q0 -47 -33 -80.5t-79 -33.5q-47 0 -81 33.5t-34 80.5z M270 231q0 -22 16.5 -37.5t39.5 -15.5h100q23 0 38 15.5t15 37.5v232h-153q-24 0 -40 -15t-16 -38v-179zM461 1255q0 46 33.5 79.5t80.5 33.5q46 0 78.5 -33.5t32.5 -79.5q0 -47 -32.5 -80.5t-78.5 -33.5q-47 0 -80.5 33.5t-33.5 80.5z" />
<glyph unicode="&#xe5;" d="M72 213v203q0 90 63.5 152.5t151.5 62.5h192v160q0 23 -16 38t-39 15h-86q-23 0 -38 -15t-15 -38v-29q0 -12 -7.5 -19.5t-19.5 -7.5h-139q-11 0 -18 7.5t-7 19.5v55q0 90 63.5 152.5t153.5 62.5h152q88 0 151.5 -62.5t63.5 -152.5v-790q0 -12 -7 -19.5t-18 -7.5h-100 q-29 0 -29 27v30q-2 -2 -13 -10t-13.5 -10t-12.5 -8.5t-13.5 -8t-13.5 -6.5t-16 -6.5t-16.5 -4.5t-20 -4t-21.5 -2t-26 -1h-71q-88 0 -151.5 63.5t-63.5 153.5zM199 1288q0 77 54 132t132 55q76 0 131 -55t55 -132q0 -78 -54.5 -132t-131.5 -54q-78 0 -132 54t-54 132z M270 231q0 -22 16.5 -37.5t39.5 -15.5h100q23 0 38 15.5t15 37.5v232h-153q-24 0 -40 -15t-16 -38v-179zM315 1288q0 -29 20.5 -49t49.5 -20t49.5 20t20.5 49t-20.5 49.5t-49.5 20.5t-49.5 -20.5t-20.5 -49.5z" />
<glyph unicode="&#xe6;" horiz-adv-x="1167" d="M72 213v172q0 90 63.5 152.5t151.5 62.5h192v197q0 21 -16 34t-39 13h-86q-23 0 -38 -15t-15 -38v-29q0 -12 -7.5 -19.5t-19.5 -7.5h-139q-11 0 -18 7.5t-7 19.5v55q0 90 63.5 152.5t153.5 62.5h152q64 0 117 -35q50 35 116 35h174q88 0 151.5 -63.5t63.5 -153.5v-356 q0 -10 -7.5 -17.5t-18.5 -7.5h-381v-217q0 -20 16.5 -32.5t38.5 -12.5h101q23 0 38 15t15 38v45q0 27 26 27h148q11 0 17.5 -7.5t6.5 -19.5v-65q0 -90 -63.5 -152.5t-153.5 -62.5h-174q-55 0 -101.5 25t-76.5 69q-34 -52 -65 -70t-93 -18h-71q-88 0 -151.5 63.5t-63.5 153.5 zM270 231q0 -22 16.5 -37.5t39.5 -15.5h100q22 0 37.5 13.5t15.5 33.5v207h-153q-24 0 -40 -15t-16 -38v-148zM678 602h209v205q0 22 -16.5 37.5t-39.5 15.5h-100q-22 0 -37.5 -14t-15.5 -33v-211z" />
<glyph unicode="&#xe7;" horiz-adv-x="749" d="M82 207v610q0 90 63.5 152.5t151.5 62.5h174q90 0 153.5 -62.5t63.5 -152.5v-110q0 -12 -6.5 -19.5t-17.5 -7.5h-148q-12 0 -19.5 7.5t-7.5 19.5v92q0 23 -15 38t-38 15h-100q-23 0 -39 -15t-16 -38v-574q0 -22 16 -37.5t39 -15.5h100q23 0 38 15.5t15 37.5v86 q0 12 7.5 19.5t19.5 7.5h148q11 0 17.5 -7.5t6.5 -19.5v-104q0 -90 -63.5 -153.5t-153.5 -63.5h-33l-24 -47h24q20 0 35.5 -14.5t15.5 -34.5v-146q0 -21 -15 -36t-36 -15h-88q-20 0 -34.5 14.5t-14.5 36.5v25q0 11 7.5 18.5t19.5 7.5h14q10 0 17.5 -7.5t7.5 -18.5q0 -5 4 -9 t10 -4h27q12 0 12 13v92q0 14 -12 14h-27q-14 0 -14 -14v-10h-66v39l51 96h-55q-88 0 -151.5 63.5t-63.5 153.5z" />
<glyph unicode="&#xe8;" d="M82 205v610q0 90 63.5 153.5t153.5 63.5h174q88 0 151.5 -63.5t63.5 -153.5v-364q0 -10 -7.5 -17.5t-18.5 -7.5h-381v-201q0 -23 16 -38t39 -15h100q23 0 38 15t15 38v45q0 12 7.5 19.5t19.5 7.5h148q11 0 17.5 -7.5t6.5 -19.5v-65q0 -90 -63.5 -152.5t-153.5 -62.5h-174 q-88 0 -151.5 62.5t-63.5 152.5zM191 1349.5q0 6.5 4 7.5l4 1h129q18 0 28 -27l70 -155q5 -13 3.5 -19t-5.5 -7l-4 -1h-92l-129 182q-8 12 -8 18.5zM281 594h208v213q0 22 -16 37.5t-39 15.5h-100q-23 0 -38 -15.5t-15 -37.5v-213z" />
<glyph unicode="&#xe9;" d="M82 205v610q0 90 63.5 153.5t153.5 63.5h174q88 0 151.5 -63.5t63.5 -153.5v-364q0 -10 -7.5 -17.5t-18.5 -7.5h-381v-201q0 -23 16 -38t39 -15h100q23 0 38 15t15 38v45q0 12 7.5 19.5t19.5 7.5h148q11 0 17.5 -7.5t6.5 -19.5v-65q0 -90 -63.5 -152.5t-153.5 -62.5h-174 q-88 0 -151.5 62.5t-63.5 152.5zM281 594h208v213q0 22 -16 37.5t-39 15.5h-100q-23 0 -38 -15.5t-15 -37.5v-213zM336.5 1157q-3.5 6 3.5 19l70 155q4 12 11 18.5t12 7.5l5 1h127q18 0 0 -27l-129 -182h-90q-2 0 -4 1t-5.5 7z" />
<glyph unicode="&#xea;" d="M82 205v610q0 90 63.5 153.5t153.5 63.5h174q88 0 151.5 -63.5t63.5 -153.5v-364q0 -10 -7.5 -17.5t-18.5 -7.5h-381v-201q0 -23 16 -38t39 -15h100q23 0 38 15t15 38v45q0 12 7.5 19.5t19.5 7.5h148q11 0 17.5 -7.5t6.5 -19.5v-65q0 -90 -63.5 -152.5t-153.5 -62.5h-174 q-88 0 -151.5 62.5t-63.5 152.5zM209.5 1136q-3.5 6 3.5 19l70 156q4 12 11 18.5t12 6.5l5 1h127q19 1 31 -26l70 -156q4 -13 2 -19t-7 -7l-4 -1h-92l-63 93l-66 -93h-90q-2 0 -4 1t-5.5 7zM281 594h208v213q0 22 -16 37.5t-39 15.5h-100q-23 0 -38 -15.5t-15 -37.5v-213z " />
<glyph unicode="&#xeb;" d="M80 1255q0 46 34 79.5t81 33.5q46 0 79 -33.5t33 -79.5q0 -47 -33 -80.5t-79 -33.5q-47 0 -81 33.5t-34 80.5zM82 205v610q0 90 63.5 153.5t153.5 63.5h174q88 0 151.5 -63.5t63.5 -153.5v-364q0 -10 -7.5 -17.5t-18.5 -7.5h-381v-201q0 -23 16 -38t39 -15h100 q23 0 38 15t15 38v45q0 12 7.5 19.5t19.5 7.5h148q11 0 17.5 -7.5t6.5 -19.5v-65q0 -90 -63.5 -152.5t-153.5 -62.5h-174q-88 0 -151.5 62.5t-63.5 152.5zM281 594h208v213q0 22 -16 37.5t-39 15.5h-100q-23 0 -38 -15.5t-15 -37.5v-213zM453 1255q0 46 33.5 79.5t80.5 33.5 q46 0 78.5 -33.5t32.5 -79.5q0 -47 -32.5 -80.5t-78.5 -33.5q-47 0 -80.5 33.5t-33.5 80.5z" />
<glyph unicode="&#xec;" horiz-adv-x="399" d="M6 1349.5q0 6.5 4 7.5l4 1h129q19 0 29 -27l70 -155q5 -13 3.5 -19t-5.5 -7l-4 -1h-93l-129 182q-8 12 -8 18.5zM102 27v970q0 12 7.5 19.5t19.5 7.5h143q11 0 18 -7.5t7 -19.5v-970q0 -12 -7 -19.5t-18 -7.5h-143q-12 0 -19.5 7.5t-7.5 19.5z" />
<glyph unicode="&#xed;" horiz-adv-x="399" d="M102 27v970q0 12 7.5 19.5t19.5 7.5h143q11 0 18 -7.5t7 -19.5v-970q0 -12 -7 -19.5t-18 -7.5h-143q-12 0 -19.5 7.5t-7.5 19.5zM148.5 1157q-3.5 6 3.5 19l69 155q4 12 11.5 18.5t12.5 7.5l5 1h127q18 0 0 -27l-129 -182h-90q-2 0 -4 1t-5.5 7z" />
<glyph unicode="&#xee;" horiz-adv-x="399" d="M33.5 1136q-3.5 6 3.5 19l69 156q4 12 11.5 18.5t12.5 6.5l5 1h127q19 1 31 -26l69 -156q4 -13 2.5 -19t-6.5 -7l-4 -1h-92l-63 93l-66 -93h-90q-2 0 -4 1t-5.5 7zM102 27v970q0 12 7.5 19.5t19.5 7.5h143q11 0 18 -7.5t7 -19.5v-970q0 -12 -7 -19.5t-18 -7.5h-143 q-12 0 -19.5 7.5t-7.5 19.5z" />
<glyph unicode="&#xef;" horiz-adv-x="399" d="M-102 1255q0 46 33.5 79.5t80.5 33.5q46 0 79.5 -33.5t33.5 -79.5q0 -47 -33.5 -80.5t-79.5 -33.5q-47 0 -80.5 33.5t-33.5 80.5zM102 27v970q0 12 7.5 19.5t19.5 7.5h143q11 0 18 -7.5t7 -19.5v-970q0 -12 -7 -19.5t-18 -7.5h-143q-12 0 -19.5 7.5t-7.5 19.5zM270 1255 q0 46 34 79.5t81 33.5q46 0 78.5 -33.5t32.5 -79.5q0 -47 -32.5 -80.5t-78.5 -33.5q-47 0 -81 33.5t-34 80.5z" />
<glyph unicode="&#xf0;" horiz-adv-x="878" d="M72 207v461q0 89 63.5 152t151.5 63h190v75l-112 -26v201l112 28v51q0 23 -16 38.5t-39 15.5h-31q-26 0 -26 24v160q0 11 7 18t19 7h125q88 0 151.5 -62.5t63.5 -152.5v-37l84 20v-205l-84 -20v-811q0 -90 -63.5 -153.5t-151.5 -63.5h-229q-88 0 -151.5 63.5t-63.5 153.5 zM289 246q0 -22 15.5 -37.5t37.5 -15.5h115q23 0 39 15.5t16 37.5v428h-170q-22 0 -37.5 -15.5t-15.5 -37.5v-375z" />
<glyph unicode="&#xf1;" horiz-adv-x="800" d="M102 27v970q0 12 7 19.5t18 7.5h100q29 0 29 -27v-30q2 2 13 10t13.5 10t12.5 8.5t13.5 8t13.5 6.5t16 6.5t16.5 4.5t20 4t21.5 2t26 1h72q88 0 151.5 -62.5t63.5 -152.5v-786q0 -12 -7.5 -19.5t-19.5 -7.5h-147q-11 0 -18 7.5t-7 19.5v759q0 23 -16 38.5t-39 15.5h-101 q-23 0 -38 -15.5t-15 -38.5v-759q0 -12 -7.5 -19.5t-19.5 -7.5h-147q-11 0 -18 7.5t-7 19.5zM217.5 1157q-3.5 6 3.5 19l70 155q4 12 11 18.5t12 7.5l5 1h82q19 0 35 -27l41 -59l62 86h90q2 0 4 -1t5.5 -7t-3.5 -19l-70 -155q-4 -12 -11 -19t-12 -7l-5 -1h-93l-65 92 l-62 -92h-90q-2 0 -4 1t-5.5 7z" />
<glyph unicode="&#xf2;" d="M82 207v612q0 90 63.5 152.5t151.5 62.5h174q90 0 153.5 -62.5t63.5 -152.5v-612q0 -90 -63.5 -153.5t-153.5 -63.5h-174q-88 0 -151.5 63.5t-63.5 153.5zM182 1349.5q0 6.5 4 7.5l4 1h129q19 0 29 -27l70 -155q5 -13 3.5 -19t-5.5 -7l-4 -1h-93l-129 182q-8 12 -8 18.5z M281 225q0 -22 16 -37.5t39 -15.5h100q23 0 38 15.5t15 37.5v568q0 23 -15 38t-38 15h-100q-23 0 -39 -15t-16 -38v-568z" />
<glyph unicode="&#xf3;" d="M82 207v612q0 90 63.5 152.5t151.5 62.5h174q90 0 153.5 -62.5t63.5 -152.5v-612q0 -90 -63.5 -153.5t-153.5 -63.5h-174q-88 0 -151.5 63.5t-63.5 153.5zM281 225q0 -22 16 -37.5t39 -15.5h100q23 0 38 15.5t15 37.5v568q0 23 -15 38t-38 15h-100q-23 0 -39 -15t-16 -38 v-568zM334.5 1157q-3.5 6 3.5 19l70 155q4 12 11 18.5t12 7.5l5 1h127q18 0 0 -27l-129 -182h-90q-2 0 -4 1t-5.5 7z" />
<glyph unicode="&#xf4;" d="M82 207v612q0 90 63.5 152.5t151.5 62.5h174q90 0 153.5 -62.5t63.5 -152.5v-612q0 -90 -63.5 -153.5t-153.5 -63.5h-174q-88 0 -151.5 63.5t-63.5 153.5zM215.5 1136q-3.5 6 3.5 19l70 156q4 12 11 18.5t12 6.5l5 1h127q19 1 31 -26l70 -156q4 -13 2.5 -19t-5.5 -7 l-5 -1h-93l-63 93l-66 -93h-90q-2 0 -4 1t-5.5 7zM281 225q0 -22 16 -37.5t39 -15.5h100q23 0 38 15.5t15 37.5v568q0 23 -15 38t-38 15h-100q-23 0 -39 -15t-16 -38v-568z" />
<glyph unicode="&#xf5;" d="M82 207v612q0 90 63.5 152.5t151.5 62.5h174q90 0 153.5 -62.5t63.5 -152.5v-612q0 -90 -63.5 -153.5t-153.5 -63.5h-174q-88 0 -151.5 63.5t-63.5 153.5zM178.5 1157q-3.5 6 3.5 19l70 155q4 12 11.5 18.5t12.5 7.5l5 1h81q19 0 35 -27l41 -59l62 86h90q2 0 4 -1t5.5 -7 t-3.5 -19l-70 -155q-4 -12 -11 -19t-12 -7l-5 -1h-92l-66 92l-61 -92h-91q-2 0 -4 1t-5.5 7zM281 225q0 -22 16 -37.5t39 -15.5h100q23 0 38 15.5t15 37.5v568q0 23 -15 38t-38 15h-100q-23 0 -39 -15t-16 -38v-568z" />
<glyph unicode="&#xf6;" d="M80 1255q0 46 34 79.5t81 33.5q46 0 79 -33.5t33 -79.5q0 -47 -33 -80.5t-79 -33.5q-47 0 -81 33.5t-34 80.5zM82 207v612q0 90 63.5 152.5t151.5 62.5h174q90 0 153.5 -62.5t63.5 -152.5v-612q0 -90 -63.5 -153.5t-153.5 -63.5h-174q-88 0 -151.5 63.5t-63.5 153.5z M281 225q0 -22 16 -37.5t39 -15.5h100q23 0 38 15.5t15 37.5v568q0 23 -15 38t-38 15h-100q-23 0 -39 -15t-16 -38v-568zM453 1255q0 46 33.5 79.5t80.5 33.5q46 0 78.5 -33.5t32.5 -79.5q0 -47 -32.5 -80.5t-78.5 -33.5q-47 0 -80.5 33.5t-33.5 80.5z" />
<glyph unicode="&#xf7;" horiz-adv-x="970" d="M102 643v150q0 11 7.5 18.5t19.5 7.5h715q10 0 17 -7.5t7 -18.5v-150q0 -11 -7 -19t-17 -8h-715q-12 0 -19.5 8t-7.5 19zM352 432q0 55 38.5 93t94.5 38t94.5 -38t38.5 -93q0 -56 -39 -94.5t-94 -38.5t-94 38.5t-39 94.5zM352 1006q0 56 39 94.5t94 38.5t94 -38.5 t39 -94.5q0 -55 -38.5 -93.5t-94.5 -38.5t-94.5 38.5t-38.5 93.5z" />
<glyph unicode="&#xf8;" d="M82 207v612q0 90 63.5 152.5t151.5 62.5h174q33 0 66 -10h133q18 0 8 -27l-25 -61q35 -50 35 -117v-612q0 -90 -63.5 -153.5t-153.5 -63.5h-174q-33 0 -66 10h-133q-16 0 -6 27l25 59q-35 53 -35 121zM281 471l157 375h-2h-100q-23 0 -39 -15t-16 -38v-322zM344 172h92 q23 0 38 15.5t15 37.5v305z" />
<glyph unicode="&#xf9;" horiz-adv-x="800" d="M92 211v786q0 12 7.5 19.5t19.5 7.5h147q11 0 18 -7.5t7 -19.5v-766q0 -23 16 -38t39 -15h100q23 0 38.5 15t15.5 38v766q0 27 26 27h148q11 0 17.5 -7.5t6.5 -19.5v-970q0 -12 -6.5 -19.5t-17.5 -7.5h-101q-28 0 -28 27v30q-2 -2 -13 -10t-13.5 -10t-12.5 -8.5t-13.5 -8 t-13.5 -6.5t-16 -6.5t-16.5 -4.5t-20 -4t-21.5 -2t-26 -1h-72q-88 0 -151.5 62.5t-63.5 152.5zM199 1349.5q0 6.5 4 7.5l4 1h129q19 0 29 -27l69 -155q5 -13 3.5 -19t-5.5 -7l-4 -1h-92l-129 182q-8 12 -8 18.5z" />
<glyph unicode="&#xfa;" horiz-adv-x="800" d="M92 211v786q0 12 7.5 19.5t19.5 7.5h147q11 0 18 -7.5t7 -19.5v-766q0 -23 16 -38t39 -15h100q23 0 38.5 15t15.5 38v766q0 27 26 27h148q11 0 17.5 -7.5t6.5 -19.5v-970q0 -12 -6.5 -19.5t-17.5 -7.5h-101q-28 0 -28 27v30q-2 -2 -13 -10t-13.5 -10t-12.5 -8.5t-13.5 -8 t-13.5 -6.5t-16 -6.5t-16.5 -4.5t-20 -4t-21.5 -2t-26 -1h-72q-88 0 -151.5 62.5t-63.5 152.5zM340.5 1157q-3.5 6 3.5 19l70 155q4 12 11 18.5t12 7.5l5 1h127q18 0 0 -27l-129 -182h-90q-2 0 -4 1t-5.5 7z" />
<glyph unicode="&#xfb;" horiz-adv-x="800" d="M92 211v786q0 12 7.5 19.5t19.5 7.5h147q11 0 18 -7.5t7 -19.5v-766q0 -23 16 -38t39 -15h100q23 0 38.5 15t15.5 38v766q0 27 26 27h148q11 0 17.5 -7.5t6.5 -19.5v-970q0 -12 -6.5 -19.5t-17.5 -7.5h-101q-28 0 -28 27v30q-2 -2 -13 -10t-13.5 -10t-12.5 -8.5t-13.5 -8 t-13.5 -6.5t-16 -6.5t-16.5 -4.5t-20 -4t-21.5 -2t-26 -1h-72q-88 0 -151.5 62.5t-63.5 152.5zM225.5 1136q-3.5 6 3.5 19l70 156q4 12 11.5 18.5t12.5 6.5l5 1h127q18 1 30 -26l70 -156q4 -13 2.5 -19t-5.5 -7l-5 -1h-92l-64 93l-65 -93h-90q-2 0 -4.5 1t-6 7z" />
<glyph unicode="&#xfc;" horiz-adv-x="800" d="M92 211v786q0 12 7.5 19.5t19.5 7.5h147q11 0 18 -7.5t7 -19.5v-766q0 -23 16 -38t39 -15h100q23 0 38.5 15t15.5 38v766q0 27 26 27h148q11 0 17.5 -7.5t6.5 -19.5v-970q0 -12 -6.5 -19.5t-17.5 -7.5h-101q-28 0 -28 27v30q-2 -2 -13 -10t-13.5 -10t-12.5 -8.5t-13.5 -8 t-13.5 -6.5t-16 -6.5t-16.5 -4.5t-20 -4t-21.5 -2t-26 -1h-72q-88 0 -151.5 62.5t-63.5 152.5zM94 1255q0 46 34 79.5t81 33.5q46 0 79.5 -33.5t33.5 -79.5q0 -47 -33.5 -80.5t-79.5 -33.5q-47 0 -81 33.5t-34 80.5zM467 1255q0 46 34 79.5t81 33.5q45 0 77.5 -33.5 t32.5 -79.5q0 -47 -32 -80.5t-78 -33.5q-47 0 -81 33.5t-34 80.5z" />
<glyph unicode="&#xfd;" horiz-adv-x="833" d="M65 1467q2 6 7 7l4 1h176q2 0 5 -0.5t9 -7.5t8 -19l144 -594l141 594q3 12 9 19t11 7l5 1h174q2 0 5 -0.5t6.5 -7.5t0.5 -19l-248 -987v-434q0 -27 -26 -27h-158q-11 0 -19 7.5t-8 19.5v434l-245 987q-3 13 -1 19zM374.5 1568q-0.5 3 0 7t2.5 10l69 156q5 12 13 18.5 t13 6.5l5 1h127l7 -3q4 -6 -7 -23l-129 -182h-90h-1q-1 0 -2.5 0.5t-3 1.5t-2.5 2.5t-1.5 4.5z" />
<glyph unicode="&#xfe;" horiz-adv-x="858" d="M113 -311v1759q0 27 26 27h168q11 0 18 -7.5t7 -19.5v-424h229q88 0 151.5 -63t63.5 -152v-594q0 -89 -63.5 -152t-151.5 -63h-229v-311q0 -12 -7 -19.5t-18 -7.5h-168q-26 0 -26 27zM332 201h170q23 0 38 15.5t15 37.5v508q0 22 -15 37.5t-38 15.5h-170v-614z" />
<glyph unicode="&#xff;" horiz-adv-x="731" d="M53 997q-3 27 19 27h151q22 0 25 -27l119 -761l112 761q3 27 25 27h155q22 0 19 -27l-219 -1308q-1 -11 -11.5 -19t-21.5 -8h-143q-22 0 -19 27l49 311h-73q-24 0 -27 27zM59 1255q0 46 34 79.5t81 33.5q46 0 79.5 -33.5t33.5 -79.5q0 -47 -33.5 -80.5t-79.5 -33.5 q-47 0 -81 33.5t-34 80.5zM432 1255q0 46 34 79.5t81 33.5q45 0 77.5 -33.5t32.5 -79.5q0 -47 -32 -80.5t-78 -33.5q-47 0 -81 33.5t-34 80.5z" />
<glyph unicode="&#x152;" horiz-adv-x="1275" d="M113 215v1045q0 89 63.5 152t151.5 63h819q11 0 17.5 -7.5t6.5 -19.5v-150q0 -26 -24 -26h-375v-395h301q11 0 18 -7.5t7 -17.5v-150q0 -11 -7.5 -18.5t-17.5 -7.5h-301v-475h385q11 0 19 -7.5t8 -19.5v-147q0 -12 -8 -19.5t-19 -7.5h-829q-88 0 -151.5 63t-63.5 152z M324 246q0 -23 16 -38t39 -15h129q22 0 37.5 15t15.5 38v977q0 22 -15.5 37.5t-37.5 15.5h-129q-23 0 -39 -15.5t-16 -37.5v-977z" />
<glyph unicode="&#x153;" horiz-adv-x="1177" d="M82 207v612q0 90 63.5 152.5t151.5 62.5h174q65 0 121 -37q50 35 115 35h174q88 0 151.5 -63.5t63.5 -153.5v-364q0 -10 -8 -17.5t-19 -7.5h-381v-209q1 -20 17 -32.5t38 -12.5h101q23 0 38 15t15 38v45q0 12 7.5 19.5t19.5 7.5h147q11 0 18 -7.5t7 -19.5v-65 q0 -90 -63.5 -152.5t-153.5 -62.5h-174q-63 0 -117 33q-58 -33 -117 -33h-174q-88 0 -151.5 63.5t-63.5 153.5zM281 225q0 -22 16 -37.5t39 -15.5h100q23 0 38 15.5t15 37.5v568q0 23 -15 38t-38 15h-100q-23 0 -39 -15t-16 -38v-568zM688 594h209v213q0 22 -16 37.5 t-39 15.5h-101q-23 0 -38 -15.5t-15 -37.5v-213z" />
<glyph unicode="&#x178;" horiz-adv-x="833" d="M65 1467q2 6 7 7l4 1h176q2 0 5 -0.5t9 -7.5t8 -19l144 -594l141 594q3 12 9 19t11 7l5 1h174q2 0 5 -0.5t6.5 -7.5t0.5 -19l-248 -987v-434q0 -27 -26 -27h-158q-11 0 -19 7.5t-8 19.5v434l-245 987q-3 13 -1 19zM119 1665q0 46 33.5 79.5t80.5 33.5q46 0 79.5 -33.5 t33.5 -79.5q0 -47 -33.5 -81t-79.5 -34q-47 0 -80.5 34t-33.5 81zM492 1665q0 46 33.5 79.5t80.5 33.5q46 0 78.5 -33.5t32.5 -79.5q0 -47 -32.5 -81t-78.5 -34q-47 0 -80.5 34t-33.5 81z" />
<glyph unicode="&#x2c6;" horiz-adv-x="520" d="M94.5 1136q-3.5 6 3.5 19l70 156q4 12 11.5 18.5t12.5 6.5l5 1h127q18 1 30 -26l70 -156q4 -13 2.5 -19t-6.5 -7l-4 -1h-92l-64 93l-65 -93h-91q-2 0 -4 1t-5.5 7z" />
<glyph unicode="&#x2dc;" horiz-adv-x="610" d="M94.5 1157q-3.5 6 3.5 19l70 155q4 12 11.5 18.5t12.5 7.5l5 1h82q18 0 34 -27l41 -59l62 86h90q2 0 4 -1t5.5 -7t-3.5 -19l-70 -155q-4 -12 -11 -19t-12 -7l-5 -1h-92l-66 92l-61 -92h-91q-2 0 -4 1t-5.5 7z" />
<glyph unicode="&#x2000;" horiz-adv-x="889" />
<glyph unicode="&#x2001;" horiz-adv-x="1778" />
<glyph unicode="&#x2002;" horiz-adv-x="889" />
<glyph unicode="&#x2003;" horiz-adv-x="1778" />
<glyph unicode="&#x2004;" horiz-adv-x="592" />
<glyph unicode="&#x2005;" horiz-adv-x="444" />
<glyph unicode="&#x2006;" horiz-adv-x="296" />
<glyph unicode="&#x2007;" horiz-adv-x="296" />
<glyph unicode="&#x2008;" horiz-adv-x="222" />
<glyph unicode="&#x2009;" horiz-adv-x="355" />
<glyph unicode="&#x200a;" horiz-adv-x="98" />
<glyph unicode="&#x2010;" horiz-adv-x="827" d="M102 643v150q0 11 7.5 18.5t19.5 7.5h571q10 0 17.5 -7.5t7.5 -18.5v-150q0 -11 -7.5 -19t-17.5 -8h-571q-12 0 -19.5 8t-7.5 19z" />
<glyph unicode="&#x2011;" horiz-adv-x="827" d="M102 643v150q0 11 7.5 18.5t19.5 7.5h571q10 0 17.5 -7.5t7.5 -18.5v-150q0 -11 -7.5 -19t-17.5 -8h-571q-12 0 -19.5 8t-7.5 19z" />
<glyph unicode="&#x2012;" horiz-adv-x="827" d="M102 643v150q0 11 7.5 18.5t19.5 7.5h571q10 0 17.5 -7.5t7.5 -18.5v-150q0 -11 -7.5 -19t-17.5 -8h-571q-12 0 -19.5 8t-7.5 19z" />
<glyph unicode="&#x2013;" horiz-adv-x="919" d="M102 643v150q0 11 7.5 18.5t19.5 7.5h664q10 0 17 -7.5t7 -18.5v-150q0 -11 -7 -19t-17 -8h-664q-12 0 -19.5 8t-7.5 19z" />
<glyph unicode="&#x2014;" horiz-adv-x="1011" d="M102 643v150q0 11 7.5 18.5t19.5 7.5h756q10 0 17 -7.5t7 -18.5v-150q0 -11 -7 -19t-17 -8h-756q-12 0 -19.5 8t-7.5 19z" />
<glyph unicode="&#x2018;" horiz-adv-x="305" d="M51 1198v188q0 46 33.5 80.5t79.5 34.5h65q10 0 17.5 -7.5t7.5 -18.5v-277q0 -11 -7.5 -19t-17.5 -8h-151q-10 0 -18.5 8.5t-8.5 18.5z" />
<glyph unicode="&#x2019;" horiz-adv-x="305" d="M51 1198v277q0 10 8 18t19 8h151q10 0 17.5 -7.5t7.5 -18.5v-189q0 -46 -33 -80.5t-78 -34.5h-65q-10 0 -18.5 8.5t-8.5 18.5z" />
<glyph unicode="&#x201a;" horiz-adv-x="305" d="M51 -88v276q0 10 8 17.5t19 7.5h151q11 0 18 -7.5t7 -17.5v-188q0 -47 -32.5 -81t-78.5 -34h-65q-10 0 -18.5 8.5t-8.5 18.5z" />
<glyph unicode="&#x201c;" horiz-adv-x="544" d="M51 1198v188q0 46 33.5 80.5t79.5 34.5h65q10 0 17.5 -7.5t7.5 -18.5v-277q0 -11 -7.5 -19t-17.5 -8h-151q-10 0 -18.5 8.5t-8.5 18.5zM291 1198v188q0 46 33.5 80.5t78.5 34.5h66q10 0 17.5 -7.5t7.5 -18.5v-277q0 -11 -7.5 -19t-17.5 -8h-152q-10 0 -18 8t-8 19z" />
<glyph unicode="&#x201d;" horiz-adv-x="544" d="M51 1198v277q0 10 8 18t19 8h151q10 0 17.5 -7.5t7.5 -18.5v-189q0 -46 -33 -80.5t-78 -34.5h-65q-10 0 -18.5 8.5t-8.5 18.5zM291 1198v277q0 11 7.5 18.5t18.5 7.5h152q10 0 17.5 -7.5t7.5 -18.5v-189q0 -46 -33 -80.5t-78 -34.5h-66q-10 0 -18 8t-8 19z" />
<glyph unicode="&#x201e;" horiz-adv-x="544" d="M51 -88v276q0 10 8 17.5t19 7.5h151q11 0 18 -7.5t7 -17.5v-188q0 -47 -32.5 -81t-78.5 -34h-65q-10 0 -18.5 8.5t-8.5 18.5zM291 -88v276q0 10 7.5 17.5t18.5 7.5h152q11 0 18 -7.5t7 -17.5v-188q0 -47 -32.5 -81t-78.5 -34h-66q-10 0 -18 8t-8 19z" />
<glyph unicode="&#x2022;" horiz-adv-x="399" d="M82 662v143q0 23 15.5 38t37.5 15h129q22 0 37.5 -15t15.5 -38v-143q0 -22 -15.5 -38t-37.5 -16h-129q-22 0 -37.5 16t-15.5 38z" />
<glyph unicode="&#x2026;" horiz-adv-x="1107" d="M51 27v168q0 12 8 19t19 7h164q11 0 18.5 -7t7.5 -19v-168q0 -12 -7.5 -19.5t-18.5 -7.5h-164q-11 0 -19 7.5t-8 19.5zM446 27v168q0 26 27 26h164q11 0 18 -7t7 -19v-168q0 -12 -7 -19.5t-18 -7.5h-164q-12 0 -19.5 7.5t-7.5 19.5zM842 27v168q0 26 24 26h164 q27 0 27 -26v-168q0 -12 -7.5 -19.5t-19.5 -7.5h-164q-11 0 -17.5 7.5t-6.5 19.5z" />
<glyph unicode="&#x202f;" horiz-adv-x="355" />
<glyph unicode="&#x2039;" horiz-adv-x="501" d="M70 694q-16 26 0 51l145 256q6 11 14.5 17.5t13.5 7.5h5h182q2 0 4 -1t5 -6.5t-5 -17.5l-155 -280l155 -281q6 -13 5 -19t-5 -7h-4h-182q-19 -1 -33 26z" />
<glyph unicode="&#x203a;" horiz-adv-x="503" d="M63 1018.5q1 5.5 5 6.5l4 1h182q19 0 33 -25l145 -256q19 -25 0 -51l-145 -254q-6 -12 -14.5 -18.5t-13.5 -7.5h-5h-182l-7 3q-6 6 3 23l157 281l-157 280q-6 12 -5 17.5z" />
<glyph unicode="&#x205f;" horiz-adv-x="444" />
<glyph unicode="&#x20ac;" horiz-adv-x="874" d="M31 514v150q0 11 7 18.5t19 7.5h66v92h-66q-12 0 -19 8t-7 19v149q0 11 7 19t19 8h66v283q0 90 63.5 152.5t151.5 62.5h219q90 0 153.5 -62.5t63.5 -152.5v-54q0 -10 -8 -18t-18 -8h-160q-11 0 -19 8t-8 18v15q0 23 -15.5 38t-37.5 15h-119q-23 0 -39 -15t-16 -38v-244 h295q10 0 17 -8t7 -19v-149q0 -11 -7 -19t-17 -8h-295v-92h295q10 0 17 -7.5t7 -18.5v-150q0 -11 -7 -19t-17 -8h-295v-249q0 -22 16 -38t39 -16h129q22 0 37.5 16t15.5 38v30q0 12 7 19.5t18 7.5h162q11 0 17.5 -7.5t6.5 -19.5v-61q0 -90 -63.5 -153.5t-151.5 -63.5h-229 q-88 0 -151.5 63.5t-63.5 153.5v280h-66q-12 0 -19 8t-7 19z" />
<glyph unicode="&#x2122;" horiz-adv-x="1196" d="M123 1393v55q0 12 7.5 19.5t19.5 7.5h311q11 0 17.5 -7.5t6.5 -19.5v-55q0 -11 -7 -18t-17 -7h-101v-655q0 -11 -7 -18t-19 -7h-62q-11 0 -18.5 7.5t-7.5 17.5v655h-96q-12 0 -19.5 7t-7.5 18zM575 713v735q0 12 8 19.5t19 7.5h64q2 0 5 -0.5t10 -7.5t11 -19l133 -363 l131 363q4 12 10.5 19t11.5 7l5 1h66q11 0 17.5 -7.5t6.5 -19.5v-735q0 -11 -7 -18t-17 -7h-64q-10 0 -17 7t-7 18v422l-136 -377l-137 377v-422q0 -11 -7 -18t-17 -7h-62q-11 0 -19 7.5t-8 17.5z" />
<glyph unicode="&#x25fc;" horiz-adv-x="1024" d="M0 0v1024h1024v-1024h-1024z" />
<glyph unicode="&#xfb01;" horiz-adv-x="919" d="M82 854v143q0 12 8 19.5t19 7.5h24v236q0 90 63.5 152.5t153.5 62.5h56q11 0 18.5 -7.5t7.5 -19.5v-137q0 -9 -7.5 -17t-16.5 -8h-31q-20 0 -32.5 -15.5t-12.5 -37.5v-209h469q11 0 17.5 -7.5t6.5 -19.5v-970q0 -12 -6.5 -19.5t-17.5 -7.5h-146q-26 0 -26 27v802h-297 v-802q0 -12 -7 -19.5t-18 -7.5h-149q-11 0 -18 7.5t-7 19.5v802h-24q-11 0 -19 7.5t-8 17.5zM604 1257q0 49 33.5 84t87.5 35t87.5 -35t33.5 -84t-33.5 -84.5t-87.5 -35.5t-87.5 35.5t-33.5 84.5z" />
<glyph unicode="&#xfb02;" horiz-adv-x="954" d="M82 860v137q0 12 8 19.5t19 7.5h14v236q0 90 63.5 152.5t153.5 62.5h436q11 0 18 -7.5t7 -19.5v-1206q0 -22 12.5 -38t32.5 -16h51q11 0 19 -7t8 -17v-137q0 -12 -8 -19.5t-19 -7.5h-68q-90 0 -153.5 62.5t-63.5 152.5v1071h-245q-20 0 -32.5 -15.5t-12.5 -37.5v-209h69 q11 0 19 -7.5t8 -19.5v-137q0 -10 -8 -17t-19 -7h-69v-809q0 -12 -7 -19.5t-18 -7.5h-150q-11 0 -17.5 7.5t-6.5 19.5v809h-14q-11 0 -19 7t-8 17z" />
<glyph horiz-adv-x="1361" d="M113 207v1061q0 90 63.5 152.5t151.5 62.5h229q88 0 151.5 -62.5t63.5 -152.5v-99q0 -26 -24 -26h-162q-11 0 -18 7t-7 19v60q0 23 -15.5 38t-37.5 15h-129q-23 0 -39 -15t-16 -38v-991q0 -22 16 -38t39 -16h129q22 0 37.5 16t15.5 38v159q0 12 7 19.5t18 7.5h162 q11 0 17.5 -7.5t6.5 -19.5v-190q0 -90 -63.5 -153.5t-151.5 -63.5h-229q-88 0 -151.5 63.5t-63.5 153.5zM561 598v371q0 12 7 19t18 7h162q24 0 24 -26v-92h254v571q0 12 8 19.5t19 7.5h159q11 0 19 -7.5t8 -19.5v-1421q0 -12 -8 -19.5t-19 -7.5h-159q-11 0 -19 7.5t-8 19.5 v649h-254v-78q0 -12 -6.5 -19.5t-17.5 -7.5h-162q-11 0 -18 7.5t-7 19.5z" />
<glyph horiz-adv-x="1116" d="M123 27v1421q0 12 7.5 19.5t19.5 7.5h159q11 0 18 -7.5t7 -19.5v-1247h653q11 0 19 -7.5t8 -19.5v-147q0 -12 -8 -19.5t-19 -7.5h-837q-12 0 -19.5 7.5t-7.5 19.5zM463 356v1092q0 12 7.5 19.5t18.5 7.5h160q12 0 19.5 -7.5t7.5 -19.5v-918h311q11 0 19 -7t8 -17v-150 q0 -12 -8 -19t-19 -7h-498q-11 0 -18.5 7t-7.5 19z" />
<glyph horiz-adv-x="1296" d="M113 207v1061q0 90 63.5 152.5t151.5 62.5h229q88 0 151.5 -62.5t63.5 -152.5v-99q0 -26 -24 -26h-162q-11 0 -18 7t-7 19v60q0 23 -15.5 38t-37.5 15h-129q-23 0 -39 -15t-16 -38v-991q0 -22 16 -38t39 -16h129q22 0 37.5 16t15.5 38v159q0 12 7 19.5t18 7.5h162 q11 0 17.5 -7.5t6.5 -19.5v-190q0 -90 -63.5 -153.5t-151.5 -63.5h-229q-88 0 -151.5 63.5t-63.5 153.5zM561 580v407q0 12 7 19.5t18 7.5h162q11 0 17.5 -7.5t6.5 -19.5v-147l248 608q4 12 11 19t11 7l5 1h176q2 0 4.5 -1t6.5 -7t-3 -19l-248 -610l248 -811q3 -13 1 -19 t-6 -7l-5 -1h-177q-2 0 -5 0.5t-9.5 7.5t-9.5 19l-248 804v-251q0 -12 -6.5 -19.5t-17.5 -7.5h-162q-11 0 -18 7.5t-7 19.5z" />
<glyph horiz-adv-x="1898" d="M123 27v1421q0 12 7.5 19.5t19.5 7.5h151q23 0 33 -27l256 -705l256 705q4 12 11.5 19t13.5 7l6 1h145q23 0 31 -27l258 -705l256 705q4 12 11.5 19t13.5 7l5 1h154q11 0 18 -7.5t7 -19.5v-1421q0 -12 -7 -19.5t-18 -7.5h-162q-11 0 -17.5 7.5t-6.5 19.5v813l-254 -711 l-256 711v-817q0 -1 -1 -3.5t-1 -3.5v-4q-8 -12 -19 -12h-168q-8 0 -14 6q-8 4 -8 17v817l-254 -711l-256 711v-813q0 -12 -7 -19.5t-18 -7.5h-159q-12 0 -19.5 7.5t-7.5 19.5z" />
<glyph horiz-adv-x="1318" d="M92 27v174l414 1073h-387q-12 0 -19.5 6.5t-7.5 17.5v150q0 12 7.5 19.5t19.5 7.5h571q11 0 18 -7.5t7 -19.5v-174l-412 -1073h166q11 0 18 -7.5t7 -19.5v-147q0 -12 -7 -19.5t-18 -7.5h-350q-12 0 -19.5 7.5t-7.5 19.5zM604 27v174l416 1073h-150q-11 0 -18.5 7t-7.5 17 v150q0 12 7.5 19.5t18.5 7.5h332q11 0 18 -7.5t7 -19.5v-174l-410 -1073h385q11 0 18 -7.5t7 -19.5v-147q0 -12 -7 -19.5t-18 -7.5h-571q-11 0 -19 7.5t-8 19.5z" />
<glyph horiz-adv-x="1247" d="M123 27v1421q0 12 7.5 19.5t19.5 7.5h159q11 0 18 -7.5t7 -19.5v-1247h764q11 0 18.5 -7.5t7.5 -19.5v-147q0 -12 -7.5 -19.5t-18.5 -7.5h-948q-12 0 -19.5 7.5t-7.5 19.5zM463 522v746q0 90 63.5 152.5t153.5 62.5h227q90 0 153.5 -62.5t63.5 -152.5v-746 q0 -90 -63.5 -153.5t-153.5 -63.5h-227q-90 0 -153.5 63.5t-63.5 153.5zM676 553q0 -22 15.5 -37.5t37.5 -15.5h129q22 0 37.5 15.5t15.5 37.5v676q0 23 -15.5 38t-37.5 15h-129q-22 0 -37.5 -15t-15.5 -38v-676z" />
<glyph horiz-adv-x="1169" d="M82 1448q0 12 7.5 19.5t19.5 7.5h159q11 0 18 -7.5t7 -19.5l55 -1034l238 463l235 -463l56 1034q0 12 6.5 19.5t17.5 7.5h162q11 0 17.5 -7.5t6.5 -19.5l-69 -1421q0 -12 -7 -19.5t-18 -7.5h-157q-19 2 -31 27l-219 395l-219 -395q-6 -11 -14.5 -18t-13.5 -8l-5 -1h-156 q-11 0 -18.5 7.5t-7.5 19.5z" />
<glyph horiz-adv-x="888" d="M113 207v1061q0 90 63.5 152.5t151.5 62.5h229q88 0 151.5 -62.5t63.5 -152.5v-1061q0 -76 -45 -133l57 -176q2 -13 1 -19t-4 -7l-3 -1h-160q-24 0 -32 27l-33 92h-225q-88 0 -151.5 63.5t-63.5 153.5zM324 238q0 -22 16 -38t39 -16h129q22 0 37.5 16t15.5 38v991 q0 23 -15.5 38t-37.5 15h-129q-23 0 -39 -15t-16 -38v-991z" />
<glyph horiz-adv-x="806" d="M92 27v174l160 415h-96q-12 0 -19.5 8t-7.5 19v150q0 11 7.5 18.5t19.5 7.5h174l176 455h-387q-12 0 -19.5 6.5t-7.5 17.5v150q0 12 7.5 19.5t19.5 7.5h571q11 0 18 -7.5t7 -19.5v-174l-174 -455h112q10 0 17.5 -7.5t7.5 -18.5v-150q0 -11 -7.5 -19t-17.5 -8h-190 l-160 -415h387q11 0 18 -7.5t7 -19.5v-147q0 -12 -7 -19.5t-18 -7.5h-571q-12 0 -19.5 7.5t-7.5 19.5z" />
<glyph horiz-adv-x="589" d="M82 27v141q0 11 7.5 18t19.5 7h92q23 0 39 16t16 39v1200q0 12 7 19.5t18 7.5h159q12 0 19.5 -7.5t7.5 -19.5v-1233q0 -89 -63.5 -152t-151.5 -63h-143q-12 0 -19.5 7.5t-7.5 19.5z" />
<glyph horiz-adv-x="1320" d="M93.5 8q-4.5 6 0.5 19l148 579q-60 25 -98 79.5t-38 121.5v453q0 89 64 152t152 63h677q88 0 151.5 -63t63.5 -152v-453q0 -67 -37.5 -121.5t-97.5 -79.5l148 -579q3 -13 0 -19t-8 -7l-5 -1h-174q-2 0 -5.5 0.5t-10.5 7.5t-10 19l-144 565h-104v-565q0 -12 -7 -19.5 t-18 -7.5h-161q-11 0 -18 7.5t-7 19.5v565h-104l-144 -565q-2 -12 -8 -18.5t-11 -7.5l-5 -1h-177q-2 0 -5 1t-7.5 7zM319 838q0 -22 15.5 -38t38.5 -16h182v490h-182q-23 0 -38.5 -15.5t-15.5 -37.5v-383zM766 784h182q23 0 39.5 16t16.5 38v383q0 22 -16.5 37.5t-39.5 15.5 h-182v-490z" />
<glyph horiz-adv-x="1390" d="M123 27v1421q0 12 7.5 19.5t19.5 7.5h157q2 0 6 -0.5t11 -7.5t10 -19l256 -793v793q0 12 6.5 19.5t17.5 7.5h160q2 0 6 -0.5t11 -7.5t10 -19l254 -793v793q0 12 7.5 19.5t18.5 7.5h160q11 0 19 -7.5t8 -19.5v-1421q0 -12 -8 -19.5t-19 -7.5h-149q-2 0 -6 0.5t-11 7.5 t-10 19l-264 714v-714q0 -12 -7 -19.5t-18 -7.5h-149q-21 0 -29 27l-264 714v-714q0 -12 -7 -19.5t-18 -7.5h-159q-12 0 -19.5 7.5t-7.5 19.5z" />
<glyph horiz-adv-x="1179" d="M123 27v1421q0 12 7.5 19.5t19.5 7.5h159q11 0 18 -7.5t7 -19.5v-1247h727q11 0 18.5 -7.5t7.5 -19.5v-147q0 -12 -7.5 -19.5t-18.5 -7.5h-911q-12 0 -19.5 7.5t-7.5 19.5zM463 332v1116q0 12 7.5 19.5t18.5 7.5h562q11 0 17.5 -7.5t6.5 -19.5v-150q0 -26 -24 -26h-375 v-273h301q10 0 17 -7.5t7 -18.5v-150q0 -11 -6.5 -17.5t-17.5 -6.5h-301v-293h385q11 0 18.5 -7.5t7.5 -17.5v-149q0 -11 -8 -19t-18 -8h-572q-10 0 -18 8t-8 19z" />
<glyph horiz-adv-x="1447" d="M72 1298v150q0 12 7.5 19.5t18.5 7.5h1200q11 0 19 -7.5t8 -19.5v-150q0 -10 -8 -17t-19 -7h-782v-1247q0 -12 -6.5 -19.5t-17.5 -7.5h-162q-11 0 -18 7.5t-7 19.5v1247h-207q-11 0 -18.5 7t-7.5 17zM645 27v1091q0 10 8.5 18.5t18.5 8.5h159q11 0 19 -8.5t8 -18.5v-407 h254v407q0 11 7.5 19t19.5 8h159q10 0 18.5 -8.5t8.5 -18.5v-1091q0 -12 -8 -19.5t-19 -7.5h-159q-12 0 -19.5 7.5t-7.5 19.5v483h-254v-483q0 -12 -8 -19.5t-19 -7.5h-159q-11 0 -19 7.5t-8 19.5z" />
<glyph horiz-adv-x="2168" d="M72 1298v150q0 12 7.5 19.5t18.5 7.5h1942q11 0 17.5 -7.5t6.5 -19.5v-150q0 -10 -7 -17t-17 -7h-1524v-1247q0 -12 -6.5 -19.5t-17.5 -7.5h-162q-11 0 -18 7.5t-7 19.5v1247h-207q-11 0 -18.5 7t-7.5 17zM645 27v1091q0 10 8.5 18.5t18.5 8.5h159q11 0 19 -8.5t8 -18.5 v-407h254v407q0 11 7.5 19t19.5 8h159q10 0 18.5 -8.5t8.5 -18.5v-1091q0 -12 -8 -19.5t-19 -7.5h-159q-12 0 -19.5 7.5t-7.5 19.5v483h-254v-483q0 -12 -8 -19.5t-19 -7.5h-159q-11 0 -19 7.5t-8 19.5zM1454 27v1091q0 11 7.5 19t17.5 8h561q10 0 17 -8t7 -19v-151 q0 -11 -7 -18t-17 -7h-375v-231h301q10 0 17.5 -7.5t7.5 -17.5v-149q0 -11 -7.5 -19t-17.5 -8h-301v-309h385q11 0 19 -7.5t8 -19.5v-147q0 -12 -8 -19.5t-19 -7.5h-571q-11 0 -18 7.5t-7 19.5z" />
<glyph horiz-adv-x="1390" d="M123 27v1421q0 12 7.5 19.5t19.5 7.5h159q11 0 18 -7.5t7 -19.5v-571h256v571q0 12 6.5 19.5t17.5 7.5h162q11 0 18 -7.5t7 -19.5v-571h254v571q0 12 7.5 19.5t18.5 7.5h160q11 0 19 -7.5t8 -19.5v-1421q0 -12 -8 -19.5t-19 -7.5h-160q-11 0 -18.5 7.5t-7.5 19.5v649 h-254v-649q0 -12 -7 -19.5t-18 -7.5h-162q-11 0 -17.5 7.5t-6.5 19.5v649h-256v-649q0 -12 -7 -19.5t-18 -7.5h-159q-12 0 -19.5 7.5t-7.5 19.5z" />
<glyph horiz-adv-x="1312" d="M102 215v410q0 80 58 145q-21 51 -21 92v398q0 89 64 152t153 63h602q89 0 152.5 -63t63.5 -152v-398q0 -48 -21 -92q57 -60 57 -145v-410q0 -89 -63 -152t-152 -63h-676q-89 0 -153 63t-64 152zM315 248q0 -23 16 -39t38 -16h182v458h-189q-20 -3 -33.5 -18t-13.5 -35 v-350zM352 891q0 -22 13.5 -36.5t33.5 -16.5h152v436h-145q-22 0 -38 -15.5t-16 -37.5v-330zM764 193h182q22 0 37.5 16t15.5 39v350q0 20 -13.5 35t-35.5 18h-186v-458zM764 838h149q22 2 36 16.5t14 36.5v330q0 22 -16 37.5t-38 15.5h-145v-436z" />
<glyph horiz-adv-x="1333" d="M113 207v1061q0 90 63.5 152.5t151.5 62.5h229q61 0 109 -31q51 31 110 31h230q88 0 151.5 -62.5t63.5 -152.5v-1061q0 -90 -63.5 -153.5t-151.5 -63.5h-230q-60 0 -110 30q-46 -30 -109 -30h-229q-88 0 -151.5 63.5t-63.5 153.5zM324 238q0 -22 16 -38t39 -16h129 q22 0 37.5 16t15.5 38v991q0 23 -15.5 38t-37.5 15h-129q-23 0 -39 -15t-16 -38v-991zM772 238q0 -22 15.5 -38t37.5 -16h129q23 0 38.5 16t15.5 38v991q0 23 -15.5 38t-38.5 15h-129q-20 0 -35 -13.5t-18 -33.5v-997z" />
<glyph d="M72 213v203q0 90 63.5 152.5t151.5 62.5h192v160q0 23 -16 38t-39 15h-86q-23 0 -38 -15t-15 -38v-29q0 -12 -7.5 -19.5t-19.5 -7.5h-139q-11 0 -18 7.5t-7 19.5v55q0 90 63.5 152.5t153.5 62.5h152q88 0 151.5 -62.5t63.5 -152.5v-790q0 -12 -7 -19.5t-18 -7.5h-100 q-29 0 -29 27v30q-2 -2 -13 -10t-13.5 -10t-12.5 -8.5t-13.5 -8t-13.5 -6.5t-16 -6.5t-16.5 -4.5t-20 -4t-21.5 -2t-26 -1h-71q-88 0 -151.5 63.5t-63.5 153.5zM131 1165v142q0 10 7 17t18 7h137q9 0 16.5 -7t7.5 -17v-142q0 -10 -7.5 -17t-16.5 -7h-137q-11 0 -18 7t-7 17z M270 231q0 -22 16.5 -37.5t39.5 -15.5h100q23 0 38 15.5t15 37.5v232h-153q-24 0 -40 -15t-16 -38v-179zM451 1165v142q0 10 6.5 17t15.5 7h139q9 0 17 -7t8 -17v-142q0 -10 -8 -17t-17 -7h-139q-9 0 -15.5 7t-6.5 17z" />
<glyph horiz-adv-x="690" d="M92 1165v142q0 10 7 17t18 7h137q9 0 17 -7t8 -17v-142q0 -10 -8 -17t-17 -7h-137q-11 0 -18 7t-7 17zM412 1165v142q0 10 6.5 17t15.5 7h139q9 0 17 -7t8 -17v-142q0 -10 -8 -17t-17 -7h-139q-9 0 -15.5 7t-6.5 17z" />
<glyph d="M82 207v612q0 90 63.5 152.5t151.5 62.5h174q90 0 153.5 -62.5t63.5 -152.5v-612q0 -90 -63.5 -153.5t-153.5 -63.5h-174q-88 0 -151.5 63.5t-63.5 153.5zM129 1165v142q0 10 7 17t18 7h137q9 0 16.5 -7t7.5 -17v-142q0 -10 -7.5 -17t-16.5 -7h-137q-11 0 -18 7t-7 17z M281 225q0 -22 16 -37.5t39 -15.5h100q23 0 38 15.5t15 37.5v568q0 23 -15 38t-38 15h-100q-23 0 -39 -15t-16 -38v-568zM449 1165v142q0 10 6.5 17t15.5 7h139q9 0 17 -7t8 -17v-142q0 -10 -8 -17t-17 -7h-139q-9 0 -15.5 7t-6.5 17z" />
<glyph horiz-adv-x="800" d="M92 211v786q0 12 7.5 19.5t19.5 7.5h147q11 0 18 -7.5t7 -19.5v-766q0 -23 16 -38t39 -15h100q23 0 38.5 15t15.5 38v766q0 27 26 27h148q11 0 17.5 -7.5t6.5 -19.5v-970q0 -12 -6.5 -19.5t-17.5 -7.5h-101q-28 0 -28 27v30q-2 -2 -13 -10t-13.5 -10t-12.5 -8.5t-13.5 -8 t-13.5 -6.5t-16 -6.5t-16.5 -4.5t-20 -4t-21.5 -2t-26 -1h-72q-88 0 -151.5 62.5t-63.5 152.5zM139 1165v142q0 10 7 17t18 7h137q9 0 17 -7t8 -17v-142q0 -10 -8 -17t-17 -7h-137q-11 0 -18 7t-7 17zM459 1165v142q0 10 6.5 17t15.5 7h140q9 0 16.5 -7t7.5 -17v-142 q0 -10 -7.5 -17t-16.5 -7h-140q-9 0 -15.5 7t-6.5 17z" />
<glyph d="M82 205v610q0 90 63.5 153.5t153.5 63.5h174q88 0 151.5 -63.5t63.5 -153.5v-364q0 -10 -7.5 -17.5t-18.5 -7.5h-381v-201q0 -23 16 -38t39 -15h100q23 0 38 15t15 38v45q0 12 7.5 19.5t19.5 7.5h148q11 0 17.5 -7.5t6.5 -19.5v-65q0 -90 -63.5 -152.5t-153.5 -62.5h-174 q-88 0 -151.5 62.5t-63.5 152.5zM131 1165v142q0 10 7 17t18 7h137q9 0 16.5 -7t7.5 -17v-142q0 -10 -7.5 -17t-16.5 -7h-137q-11 0 -18 7t-7 17zM281 594h208v213q0 22 -16 37.5t-39 15.5h-100q-23 0 -38 -15.5t-15 -37.5v-213zM451 1165v142q0 10 6.5 17t15.5 7h139 q9 0 17 -7t8 -17v-142q0 -10 -8 -17t-17 -7h-139q-9 0 -15.5 7t-6.5 17z" />
<glyph horiz-adv-x="399" d="M-53 1165v142q0 11 6.5 17.5t17.5 6.5h138q9 0 16.5 -7t7.5 -17v-142q0 -10 -7.5 -17t-16.5 -7h-138q-11 0 -17.5 6.5t-6.5 17.5zM102 27v970q0 12 7.5 19.5t19.5 7.5h143q11 0 18 -7.5t7 -19.5v-970q0 -12 -7 -19.5t-18 -7.5h-143q-12 0 -19.5 7.5t-7.5 19.5zM266 1165 v142q0 10 7 17t16 7h139q9 0 17 -7t8 -17v-142q0 -10 -8 -17t-17 -7h-139q-9 0 -16 7t-7 17z" />
<glyph horiz-adv-x="731" d="M53 997q-3 27 19 27h151q22 0 25 -27l119 -761l112 761q3 27 25 27h155q22 0 19 -27l-219 -1308q-1 -11 -11.5 -19t-21.5 -8h-143q-22 0 -19 27l49 311h-73q-24 0 -27 27zM102 1165v142q0 10 7 17t18 7h137q9 0 17 -7t8 -17v-142q0 -10 -8 -17t-17 -7h-137q-11 0 -18 7 t-7 17zM422 1165v142q0 10 6.5 17t15.5 7h140q9 0 16.5 -7t7.5 -17v-142q0 -10 -7.5 -17t-16.5 -7h-140q-9 0 -15.5 7t-6.5 17z" />
<glyph horiz-adv-x="1290" d="M123 27v1421q0 12 7.5 19.5t19.5 7.5h735q11 0 17.5 -7.5t6.5 -19.5v-150q0 -26 -24 -26h-551v-395h209q11 0 18.5 -7.5t7.5 -17.5v-150q0 -10 -7.5 -18t-18.5 -8h-209v-649q0 -12 -7 -19.5t-18 -7.5h-159q-12 0 -19.5 7.5t-7.5 19.5zM698 27v1091q0 11 7.5 19t17.5 8 h162q10 0 17 -8t7 -19v-917h293q12 0 19.5 -7.5t7.5 -19.5v-147q0 -12 -7.5 -19.5t-19.5 -7.5h-479q-11 0 -18 7.5t-7 19.5z" />
<glyph horiz-adv-x="925" d="M123 27v1233q0 89 63.5 152t151.5 63h424q11 0 17.5 -7.5t6.5 -19.5v-156l-127 -479q71 -17 117.5 -75t46.5 -134v-397q0 -90 -63.5 -153.5t-151.5 -63.5h-24q-10 0 -17.5 7.5t-7.5 18.5v168q22 0 37.5 16t15.5 38v327q0 23 -15.5 38t-37.5 15h-80q-10 0 -18 8t-8 19v156 l125 473h-189q-23 0 -39 -15.5t-16 -37.5v-1194q0 -12 -7 -19.5t-18 -7.5h-159q-12 0 -19.5 7.5t-7.5 19.5z" />
<glyph horiz-adv-x="882" d="M84 27l246 1421q1 12 7.5 19t12.5 7l6 1h170q3 0 7 -0.5t11.5 -7.5t8.5 -19l246 -1421q2 -12 -2 -18.5t-9 -7.5l-4 -1h-176q-2 0 -5 0.5t-8.5 7.5t-6.5 19l-35 196h-223l-35 -196q-1 -12 -6 -18.5t-10 -7.5l-5 -1h-176q-2 0 -5 0.5t-7 7.5t-2 19zM184 1575v141 q0 10 8 17.5t17 7.5h139q9 0 16 -7.5t7 -17.5v-141q0 -10 -7 -17.5t-16 -7.5h-139q-9 0 -17 7.5t-8 17.5zM362 424h158l-80 582zM504 1575v141q0 11 7 18t17 7h138q10 0 17 -7t7 -18v-141q0 -11 -7 -18t-17 -7h-138q-10 0 -17 7t-7 18z" />
<glyph horiz-adv-x="892" d="M113 207v1061q0 90 63.5 152.5t151.5 62.5h235q90 0 153.5 -62.5t63.5 -152.5v-1061q0 -90 -63.5 -153.5t-153.5 -63.5h-235q-88 0 -151.5 63.5t-63.5 153.5zM195 1575v141q0 10 6.5 17.5t15.5 7.5h139q9 0 16 -7.5t7 -17.5v-141q0 -10 -7 -17.5t-16 -7.5h-139 q-9 0 -15.5 7.5t-6.5 17.5zM324 238q0 -22 16 -38t39 -16h135q23 0 38 16t15 38v991q0 23 -15 38t-38 15h-135q-23 0 -39 -15t-16 -38v-991zM512 1575v141q0 10 8 17.5t17 7.5h137q10 0 17 -7t7 -18v-141q0 -11 -7 -18t-17 -7h-137q-9 0 -17 7.5t-8 17.5z" />
<glyph horiz-adv-x="837" d="M123 27v1421q0 12 7.5 19.5t19.5 7.5h559q11 0 18.5 -7.5t7.5 -19.5v-150q0 -12 -7.5 -19t-18.5 -7h-375v-395h301q11 0 19 -7.5t8 -17.5v-150q0 -10 -8 -18t-19 -8h-301v-475h387q11 0 17.5 -7.5t6.5 -19.5v-147q0 -12 -6.5 -19.5t-17.5 -7.5h-571q-12 0 -19.5 7.5 t-7.5 19.5zM176 1575v141q0 10 7 17.5t18 7.5h137q10 0 17 -7t7 -18v-141q0 -11 -7 -18t-17 -7h-137q-11 0 -18 7t-7 18zM496 1575v141q0 10 6.5 17.5t15.5 7.5h139q9 0 17 -7.5t8 -17.5v-141q0 -10 -8 -17.5t-17 -7.5h-139q-9 0 -15.5 7.5t-6.5 17.5z" />
<glyph horiz-adv-x="456" d="M-25 1575v141q0 10 7.5 17.5t17.5 7.5h137q9 0 17 -7.5t8 -17.5v-141q0 -10 -8 -17.5t-17 -7.5h-137q-10 0 -17.5 7t-7.5 18zM125 27v1421q0 12 7 19.5t18 7.5h161q11 0 18 -7.5t7 -19.5v-1421q0 -12 -7 -19.5t-18 -7.5h-161q-11 0 -18 7.5t-7 19.5zM295 1575v141 q0 10 6.5 17.5t15.5 7.5h140q9 0 16.5 -7.5t7.5 -17.5v-141q0 -10 -7.5 -17.5t-16.5 -7.5h-140q-9 0 -15.5 7.5t-6.5 17.5z" />
<glyph horiz-adv-x="833" d="M65 1467q2 6 7 7l4 1h176q2 0 5 -0.5t9 -7.5t8 -19l144 -594l141 594q3 12 9 19t11 7l5 1h174q2 0 5 -0.5t6.5 -7.5t0.5 -19l-248 -987v-434q0 -27 -26 -27h-158q-11 0 -19 7.5t-8 19.5v434l-245 987q-3 13 -1 19zM164 1575v141q0 10 7.5 17.5t16.5 7.5h140 q9 0 15.5 -7.5t6.5 -17.5v-141q0 -10 -6.5 -17.5t-15.5 -7.5h-140q-9 0 -16.5 7.5t-7.5 17.5zM483 1575v141q0 10 8 17.5t17 7.5h137q11 0 18 -7.5t7 -17.5v-141q0 -11 -7 -18t-18 -7h-137q-9 0 -17 7.5t-8 17.5z" />
<glyph horiz-adv-x="909" d="M123 207v1241q0 12 7.5 19.5t19.5 7.5h159q11 0 18 -7.5t7 -19.5v-1210q0 -22 16 -38t39 -16h131q23 0 38 16t15 38v1210q0 12 8 19.5t19 7.5h160q26 0 26 -27v-1241q0 -90 -63.5 -153.5t-151.5 -63.5h-233q-88 0 -151.5 63.5t-63.5 153.5zM203 1575v141q0 10 6.5 17.5 t15.5 7.5h140q9 0 16.5 -7.5t7.5 -17.5v-141q0 -10 -7.5 -17.5t-16.5 -7.5h-140q-9 0 -15.5 7.5t-6.5 17.5zM520 1575v141q0 10 8 17.5t17 7.5h139q9 0 16 -7.5t7 -17.5v-141q0 -10 -7 -17.5t-16 -7.5h-139q-9 0 -17 7.5t-8 17.5z" />
<glyph horiz-adv-x="403" d="M102 27v970q0 12 7.5 19.5t19.5 7.5h147q11 0 18 -7.5t7 -19.5v-970q0 -12 -7 -19.5t-18 -7.5h-147q-12 0 -19.5 7.5t-7.5 19.5zM102 1186v157q0 10 7 17.5t16 7.5h151q9 0 17 -7.5t8 -17.5v-157q0 -10 -8 -17.5t-17 -7.5h-151q-9 0 -16 7.5t-7 17.5z" />
<glyph horiz-adv-x="419" d="M-20 -178q0 10 7.5 17t18.5 7h66q20 3 32.5 17.5t12.5 36.5v1097q0 27 26 27h150q11 0 17.5 -7.5t6.5 -19.5v-1120q0 -90 -63.5 -152.5t-153.5 -62.5h-94q-11 0 -18.5 7.5t-7.5 19.5v133zM117 1186v157q0 10 6.5 17.5t15.5 7.5h154q9 0 16.5 -7.5t7.5 -17.5v-157 q0 -10 -7.5 -17.5t-16.5 -7.5h-154q-9 0 -15.5 7.5t-6.5 17.5z" />
<glyph horiz-adv-x="1124" d="M123 27v1421q0 12 7.5 19.5t19.5 7.5h827q11 0 17.5 -7.5t6.5 -19.5v-150q0 -26 -24 -26h-643v-395h301q11 0 19 -7.5t8 -17.5v-150q0 -10 -8 -18t-19 -8h-301v-649q0 -12 -7 -19.5t-18 -7.5h-159q-12 0 -19.5 7.5t-7.5 19.5zM791 27v1091q0 11 7 19t17 8h162q10 0 17 -8 t7 -19v-1091q0 -12 -6.5 -19.5t-17.5 -7.5h-162q-11 0 -17.5 7.5t-6.5 19.5z" />
<glyph horiz-adv-x="1538" d="M123 215v1045q0 89 63.5 152t151.5 63h862q88 0 151.5 -63t63.5 -152v-740q0 -90 -63.5 -153.5t-151.5 -63.5h-100q-60 0 -111 31q-48 -31 -108 -31h-230q-88 0 -151.5 63.5t-63.5 153.5v369q0 89 63.5 152t151.5 63h230q88 0 151.5 -63t63.5 -152v-338q0 -22 15.5 -37.5 t37.5 -15.5q23 0 38 15.5t15 37.5v670q0 22 -15 37.5t-38 15.5h-760q-23 0 -39 -15.5t-16 -37.5v-973q0 -23 16 -39t39 -16h987q11 0 19 -7.5t8 -17.5v-141q0 -12 -8 -19.5t-19 -7.5h-1038q-88 0 -151.5 63t-63.5 152zM647 551q0 -22 16 -37.5t39 -15.5h129q20 0 35.5 13 t18.5 32v307q0 22 -16 37.5t-38 15.5h-129q-23 0 -39 -15.5t-16 -37.5v-299z" />
<glyph horiz-adv-x="944" d="M92 862v135q0 12 8 19.5t19 7.5h24v236q0 90 63.5 152.5t153.5 62.5h35q11 0 19 -7.5t8 -19.5v-137q0 -10 -8 -17.5t-19 -7.5h-10q-18 0 -30.5 -15.5t-12.5 -37.5v-209h203v236q0 90 63.5 152.5t153.5 62.5h94q11 0 19 -7.5t8 -19.5v-137q0 -10 -8 -17.5t-19 -7.5h-68 q-20 0 -32.5 -15.5t-12.5 -37.5v-209h97q11 0 18.5 -7.5t7.5 -19.5v-135q0 -10 -7.5 -17t-18.5 -7h-97v-811q0 -27 -24 -27h-150q-24 0 -24 27v811h-203v-811q0 -12 -7 -19.5t-18 -7.5h-149q-11 0 -18 7.5t-7 19.5v811h-24q-11 0 -19 7t-8 17z" />
<glyph horiz-adv-x="935" d="M61 860v137q0 12 8 19.5t19 7.5h66v199q0 26 26 26h148q24 0 24 -26v-199h230v199q0 26 26 26h148q24 0 24 -26v-199h68q11 0 18.5 -7.5t7.5 -19.5v-137q0 -10 -7.5 -17t-18.5 -7h-68v-809q0 -12 -6.5 -19.5t-17.5 -7.5h-150q-11 0 -17.5 7.5t-6.5 19.5v809h-230v-809 q0 -12 -6.5 -19.5t-17.5 -7.5h-150q-11 0 -17.5 7.5t-6.5 19.5v809h-66q-11 0 -19 7t-8 17z" />
<glyph horiz-adv-x="1232" d="M82 207v610q0 90 63.5 152.5t151.5 62.5h119q11 0 18.5 -7t7.5 -19v-144q0 -10 -7.5 -17t-18.5 -7h-80q-23 0 -39 -15.5t-16 -38.5v-565q0 -22 16 -37.5t39 -15.5h145q23 0 38.5 15.5t15.5 37.5v1229q0 27 26 27h148q11 0 17.5 -7.5t6.5 -19.5v-424h191q90 0 153.5 -62.5 t63.5 -152.5v-782q0 -12 -7 -19.5t-18 -7.5h-149q-12 0 -19.5 7.5t-7.5 19.5v755q0 23 -15 38.5t-38 15.5h-154v-629q0 -90 -63.5 -153.5t-153.5 -63.5h-219q-88 0 -151.5 63.5t-63.5 153.5z" />
<glyph horiz-adv-x="790" d="M92 397v412q0 90 63.5 152.5t151.5 62.5h365q12 0 19 -7t7 -18v-55q0 -13 -6.5 -23t-19.5 -10h-33q59 -72 59 -174v-340q0 -90 -63.5 -153.5t-153.5 -63.5h-176v-53h166q90 0 153.5 -62.5t63.5 -152.5v-66q0 -90 -63.5 -153.5t-153.5 -63.5h-154q-88 0 -151.5 63.5 t-63.5 153.5v66q0 81 52 139v195q-62 62 -62 151zM291 375q0 -22 16 -37.5t39 -15.5h100q23 0 38.5 15.5t15.5 37.5v407q0 23 -15.5 38.5t-38.5 15.5h-100q-23 0 -39 -15.5t-16 -38.5v-407zM295 -74v-61q0 -22 16 -37.5t39 -15.5h92q23 0 38.5 15.5t15.5 37.5v61 q0 23 -15.5 38.5t-38.5 15.5h-92q-23 0 -39 -15.5t-16 -38.5z" />
<glyph horiz-adv-x="811" d="M113 27v1421q0 27 26 27h148q11 0 17.5 -7.5t6.5 -19.5v-995l236 544q10 27 35 27h149q11 0 16 -7.5t1 -19.5l-185 -405l225 -565q4 -12 -1 -19.5t-17 -7.5h-145q-23 0 -33 27l-137 325l-146 -325q-12 -27 -33 -27h-143q-9 0 -14.5 8t-5.5 19z" />
<glyph horiz-adv-x="522" d="M72 860v137q0 12 7.5 19.5t18.5 7.5h25v178q0 12 7.5 19.5t19.5 7.5h147q11 0 18 -7.5t7 -19.5v-178h112q11 0 19 -7.5t8 -19.5v-137q0 -10 -8 -17t-19 -7h-112v-594q0 -22 12.5 -36.5t32.5 -17.5h67q11 0 19 -7t8 -17v-137q0 -12 -8 -19.5t-19 -7.5h-94 q-90 0 -153.5 62.5t-63.5 152.5v621h-25q-11 0 -18.5 7t-7.5 17z" />
<glyph d="M102 25v163l129 228h-102q-11 0 -19 7t-8 17v131q0 12 8 19.5t19 7.5h207l137 238h-344q-11 0 -19 7t-8 17v137q0 12 8 19.5t19 7.5h512q11 0 19 -7.5t8 -19.5v-161l-138 -238h111q11 0 19 -7.5t8 -19.5v-131q0 -10 -8 -17t-19 -7h-215l-129 -228h344q11 0 19 -7t8 -19 v-137q0 -10 -8 -17.5t-19 -7.5h-512q-11 0 -19 7.5t-8 17.5z" />
<glyph horiz-adv-x="813" d="M82 381v231q0 68 37 117q-37 55 -37 121v244q0 90 63.5 152.5t151.5 62.5h25v98q0 27 26 27h127q11 0 18 -7.5t7 -19.5v-98h24q88 0 151.5 -62.5t63.5 -152.5v-107q0 -26 -26 -26h-158q-11 0 -18 7t-7 19v68q0 23 -16 38t-39 15h-127q-23 0 -38 -15t-15 -38v-174 q0 -22 15 -38t38 -16h82q11 0 19 -7t8 -17v-150q0 -23 -21 -26h-88q-23 0 -38 -16t-15 -38v-161q0 -22 15 -38t38 -16h129q22 0 37.5 16t15.5 38v77q0 11 7.5 19t17.5 8h162q10 0 17 -8t7 -19v-108q0 -91 -63 -154t-152 -63h-26v-96q0 -12 -7 -19.5t-18 -7.5h-127 q-26 0 -26 27v96h-25q-88 0 -151.5 63.5t-63.5 153.5z" />
<glyph horiz-adv-x="790" d="M82 213v598q0 90 63.5 153.5t153.5 63.5h70q14 0 26 -1t21.5 -2t20 -4t16.5 -4.5t16 -6.5t13.5 -6.5t13.5 -8t12.5 -8.5t13.5 -10t13 -10v30q0 27 28 27h101q11 0 17.5 -7.5t6.5 -19.5v-970q0 -12 -6.5 -19.5t-17.5 -7.5h-101q-28 0 -28 27v30q-2 -2 -13 -10t-13.5 -10 t-12.5 -8.5t-13.5 -8t-13.5 -6.5t-16 -6.5t-16.5 -4.5t-20 -4t-21.5 -2t-26 -1h-70q-90 0 -153.5 63.5t-63.5 153.5zM274 231q0 -22 15.5 -37.5t38.5 -15.5h106q23 0 39 15.5t16 37.5v562q0 22 -16 37.5t-39 15.5h-106q-23 0 -38.5 -15.5t-15.5 -37.5v-562z" />
<glyph horiz-adv-x="790" d="M82 213v598q0 90 63.5 153.5t153.5 63.5h70q14 0 26 -1t21.5 -2t20 -4t16.5 -4.5t16 -6.5t13.5 -6.5t13.5 -8t12.5 -8.5t13.5 -10t13 -10v30q0 27 28 27h101q11 0 17.5 -7.5t6.5 -19.5v-970q0 -12 -6.5 -19.5t-17.5 -7.5h-101q-28 0 -28 27v30q-2 -2 -13 -10t-13.5 -10 t-12.5 -8.5t-13.5 -8t-13.5 -6.5t-16 -6.5t-16.5 -4.5t-20 -4t-21.5 -2t-26 -1h-70q-90 0 -153.5 63.5t-63.5 153.5zM274 231q0 -22 15.5 -37.5t38.5 -15.5h106q23 0 39 15.5t16 37.5v562q0 22 -16 37.5t-39 15.5h-106q-23 0 -38.5 -15.5t-15.5 -37.5v-562zM334.5 1157 q-3.5 6 3.5 19l70 155q4 12 11 18.5t12 7.5l5 1h127q18 0 0 -27l-129 -182h-90q-2 0 -4 1t-5.5 7z" />
<glyph horiz-adv-x="790" d="M82 213v598q0 90 63.5 153.5t153.5 63.5h70q14 0 26 -1t21.5 -2t20 -4t16.5 -4.5t16 -6.5t13.5 -6.5t13.5 -8t12.5 -8.5t13.5 -10t13 -10v30q0 27 28 27h101q11 0 17.5 -7.5t6.5 -19.5v-970q0 -12 -6.5 -19.5t-17.5 -7.5h-101q-28 0 -28 27v30q-2 -2 -13 -10t-13.5 -10 t-12.5 -8.5t-13.5 -8t-13.5 -6.5t-16 -6.5t-16.5 -4.5t-20 -4t-21.5 -2t-26 -1h-70q-90 0 -153.5 63.5t-63.5 153.5zM178 1349.5q0 6.5 4 7.5l4 1h129q19 0 29 -27l70 -155q5 -13 3.5 -19t-5.5 -7l-4 -1h-93l-129 182q-8 12 -8 18.5zM274 231q0 -22 15.5 -37.5t38.5 -15.5 h106q23 0 39 15.5t16 37.5v562q0 22 -16 37.5t-39 15.5h-106q-23 0 -38.5 -15.5t-15.5 -37.5v-562z" />
<glyph horiz-adv-x="790" d="M82 213v598q0 90 63.5 153.5t153.5 63.5h70q14 0 26 -1t21.5 -2t20 -4t16.5 -4.5t16 -6.5t13.5 -6.5t13.5 -8t12.5 -8.5t13.5 -10t13 -10v30q0 27 28 27h101q11 0 17.5 -7.5t6.5 -19.5v-970q0 -12 -6.5 -19.5t-17.5 -7.5h-101q-28 0 -28 27v30q-2 -2 -13 -10t-13.5 -10 t-12.5 -8.5t-13.5 -8t-13.5 -6.5t-16 -6.5t-16.5 -4.5t-20 -4t-21.5 -2t-26 -1h-70q-90 0 -153.5 63.5t-63.5 153.5zM217.5 1136q-3.5 6 3.5 19l70 156q4 12 11 18.5t12 6.5l5 1h127q19 1 31 -26l70 -156q4 -13 2.5 -19t-5.5 -7l-5 -1h-93l-63 93l-66 -93h-90q-2 0 -4 1 t-5.5 7zM274 231q0 -22 15.5 -37.5t38.5 -15.5h106q23 0 39 15.5t16 37.5v562q0 22 -16 37.5t-39 15.5h-106q-23 0 -38.5 -15.5t-15.5 -37.5v-562z" />
<glyph horiz-adv-x="790" d="M82 213v598q0 90 63.5 153.5t153.5 63.5h70q14 0 26 -1t21.5 -2t20 -4t16.5 -4.5t16 -6.5t13.5 -6.5t13.5 -8t12.5 -8.5t13.5 -10t13 -10v30q0 27 28 27h101q11 0 17.5 -7.5t6.5 -19.5v-970q0 -12 -6.5 -19.5t-17.5 -7.5h-101q-28 0 -28 27v30q-2 -2 -13 -10t-13.5 -10 t-12.5 -8.5t-13.5 -8t-13.5 -6.5t-16 -6.5t-16.5 -4.5t-20 -4t-21.5 -2t-26 -1h-70q-90 0 -153.5 63.5t-63.5 153.5zM86 1255q0 46 34 79.5t81 33.5q46 0 79 -33.5t33 -79.5q0 -47 -33 -80.5t-79 -33.5q-47 0 -81 33.5t-34 80.5zM274 231q0 -22 15.5 -37.5t38.5 -15.5h106 q23 0 39 15.5t16 37.5v562q0 22 -16 37.5t-39 15.5h-106q-23 0 -38.5 -15.5t-15.5 -37.5v-562zM459 1255q0 46 33.5 79.5t80.5 33.5q46 0 78.5 -33.5t32.5 -79.5q0 -47 -32.5 -80.5t-78.5 -33.5q-47 0 -80.5 33.5t-33.5 80.5z" />
<glyph horiz-adv-x="790" d="M82 213v598q0 90 63.5 153.5t153.5 63.5h70q14 0 26 -1t21.5 -2t20 -4t16.5 -4.5t16 -6.5t13.5 -6.5t13.5 -8t12.5 -8.5t13.5 -10t13 -10v30q0 27 28 27h101q11 0 17.5 -7.5t6.5 -19.5v-970q0 -12 -6.5 -19.5t-17.5 -7.5h-101q-28 0 -28 27v30q-2 -2 -13 -10t-13.5 -10 t-12.5 -8.5t-13.5 -8t-13.5 -6.5t-16 -6.5t-16.5 -4.5t-20 -4t-21.5 -2t-26 -1h-70q-90 0 -153.5 63.5t-63.5 153.5zM193.5 1157q-3.5 6 3.5 19l69 155q4 12 11.5 18.5t12.5 7.5l5 1h82q19 0 35 -27l41 -59l61 86h90q2 0 4 -1t5.5 -7t-3.5 -19l-69 -155q-4 -12 -11.5 -19 t-12.5 -7l-5 -1h-92l-66 92l-61 -92h-90q-2 0 -4 1t-5.5 7zM274 231q0 -22 15.5 -37.5t38.5 -15.5h106q23 0 39 15.5t16 37.5v562q0 22 -16 37.5t-39 15.5h-106q-23 0 -38.5 -15.5t-15.5 -37.5v-562z" />
<glyph horiz-adv-x="790" d="M82 213v598q0 90 63.5 153.5t153.5 63.5h70q14 0 26 -1t21.5 -2t20 -4t16.5 -4.5t16 -6.5t13.5 -6.5t13.5 -8t12.5 -8.5t13.5 -10t13 -10v30q0 27 28 27h101q11 0 17.5 -7.5t6.5 -19.5v-970q0 -12 -6.5 -19.5t-17.5 -7.5h-101q-28 0 -28 27v30q-2 -2 -13 -10t-13.5 -10 t-12.5 -8.5t-13.5 -8t-13.5 -6.5t-16 -6.5t-16.5 -4.5t-20 -4t-21.5 -2t-26 -1h-70q-90 0 -153.5 63.5t-63.5 153.5zM195 1288q0 77 54 132t132 55q76 0 131 -55t55 -132q0 -78 -54.5 -132t-131.5 -54q-78 0 -132 54t-54 132zM274 231q0 -22 15.5 -37.5t38.5 -15.5h106 q23 0 39 15.5t16 37.5v562q0 22 -16 37.5t-39 15.5h-106q-23 0 -38.5 -15.5t-15.5 -37.5v-562zM311 1288q0 -29 20.5 -49t49.5 -20t49.5 20t20.5 49t-20.5 49.5t-49.5 20.5t-49.5 -20.5t-20.5 -49.5z" />
</font>
</defs>
</svg>
